<?xml version="1.0" encoding="UTF-8" standalone="no"?>
<svg width="128px" height="128px" viewBox="0 0 128 128" version="1.1" xmlns="http://www.w3.org/2000/svg" xmlns:xlink="http://www.w3.org/1999/xlink">
    <!-- Generator: Sketch 3.8.1 (29687) - http://www.bohemiancoding.com/sketch -->
    <title>icon_padenie_predmetov</title>
    <desc>Created with Sketch.</desc>
    <defs></defs>
    <g id="Symbols" stroke="none" stroke-width="1" fill="none" fill-rule="evenodd">
        <g id="what_i_can_insure" transform="translate(-656.000000, -111.000000)">
            <g id="6" transform="translate(629.000000, 111.000000)">
                <g id="icon_padenie_predmetov" transform="translate(27.000000, 0.000000)">
                    <rect id="Rectangle-474" fill="#FFFFFF" x="0" y="0" width="128" height="128"></rect>
                    <g id="brick" transform="translate(30.000000, 17.000000)" fill="#84A4B2">
                        <g id="Ellipse_1_copy_6_1_">
                            <g id="Ellipse_1_copy_6">
                                <path d="M26.7358491,68.8450704 C25.2830189,68.8450704 24.0943396,70.0366197 24.0943396,71.4929577 C24.0943396,72.9492958 25.2830189,74.1408451 26.7358491,74.1408451 C28.1886792,74.1408451 29.3773585,72.9492958 29.3773585,71.4929577 C29.3773585,70.0366197 28.1886792,68.8450704 26.7358491,68.8450704 L26.7358491,68.8450704 Z M26.7358491,55.6056338 C25.2830189,55.6056338 24.0943396,56.7971831 24.0943396,58.2535211 C24.0943396,59.7098592 25.2830189,60.9014085 26.7358491,60.9014085 C28.1886792,60.9014085 29.3773585,59.7098592 29.3773585,58.2535211 C29.3773585,56.7971831 28.1886792,55.6056338 26.7358491,55.6056338 L26.7358491,55.6056338 Z M3.62264151,81.4225352 C2.96226415,80.628169 1.77358491,80.4957746 0.981132075,81.1577465 C0.188679245,81.8197183 0.0566037736,82.8788732 0.716981132,83.6732394 L7.58490566,92.0140845 C8.24528302,92.8084507 9.43396226,92.9408451 10.2264151,92.2788732 C11.0188679,91.6169014 11.1509434,90.5577465 10.490566,89.7633803 L3.62264151,81.4225352 L3.62264151,81.4225352 Z M26.7358491,42.3661972 C25.2830189,42.3661972 24.0943396,43.5577465 24.0943396,45.0140845 C24.0943396,46.4704225 25.2830189,47.6619718 26.7358491,47.6619718 C28.1886792,47.6619718 29.3773585,46.4704225 29.3773585,45.0140845 C29.3773585,43.5577465 28.1886792,42.3661972 26.7358491,42.3661972 L26.7358491,42.3661972 Z M18.8113208,24.0957746 L20.1320755,24.0957746 C20.9245283,24.0957746 21.4528302,23.5661972 21.4528302,22.771831 L21.4528302,11.5183099 C21.4528302,10.7239437 20.9245283,10.1943662 20.1320755,10.1943662 L18.8113208,10.1943662 C18.0188679,10.1943662 17.490566,10.7239437 17.490566,11.5183099 L17.490566,22.771831 C17.490566,23.4338028 18.0188679,24.0957746 18.8113208,24.0957746 L18.8113208,24.0957746 Z M42.5849057,27.8028169 L43.9056604,27.8028169 C44.6981132,27.8028169 45.2264151,27.2732394 45.2264151,26.4788732 L45.2264151,1.32394366 C45.2264151,0.529577465 44.6981132,0 43.9056604,0 L42.5849057,0 C41.7924528,0 41.2641509,0.529577465 41.2641509,1.32394366 L41.2641509,26.4788732 C41.2641509,27.2732394 41.9245283,27.8028169 42.5849057,27.8028169 L42.5849057,27.8028169 Z M45.2264151,31.7746479 L17.490566,31.7746479 C16.0377358,31.7746479 14.8490566,32.9661972 14.8490566,34.4225352 L14.8490566,87.3802817 C14.8490566,88.8366197 16.0377358,90.028169 17.490566,90.028169 L45.2264151,90.028169 C46.6792453,90.028169 47.8679245,88.8366197 47.8679245,87.3802817 L47.8679245,34.4225352 C47.8679245,32.9661972 46.6792453,31.7746479 45.2264151,31.7746479 L45.2264151,31.7746479 Z M43.9056604,84.8647887 C43.9056604,85.6591549 43.3773585,86.1887324 42.5849057,86.1887324 L20.1320755,86.1887324 C19.3396226,86.1887324 18.8113208,85.6591549 18.8113208,84.8647887 L18.8113208,36.9380282 C18.8113208,36.143662 19.3396226,35.6140845 20.1320755,35.6140845 L42.5849057,35.6140845 C43.3773585,35.6140845 43.9056604,36.143662 43.9056604,36.9380282 L43.9056604,84.8647887 L43.9056604,84.8647887 Z M62.2641509,75.8619718 C61.4716981,75.3323944 60.4150943,75.4647887 59.8867925,76.1267606 L53.5471698,83.8056338 C53.0188679,84.4676056 53.1509434,85.5267606 53.8113208,86.056338 C54.6037736,86.5859155 55.6603774,86.4535211 56.1886792,85.7915493 L62.5283019,78.1126761 C63.0566038,77.4507042 62.9245283,76.3915493 62.2641509,75.8619718 L62.2641509,75.8619718 Z M67.5471698,87.5126761 C67.1509434,86.5859155 66.0943396,86.1887324 65.3018868,86.5859155 L57.3773585,89.2338028 C56.4528302,89.6309859 56.0566038,90.6901408 56.4528302,91.6169014 C56.8490566,92.543662 57.9056604,92.9408451 58.6981132,92.543662 L66.6226415,89.8957746 C67.5471698,89.4985915 67.9433962,88.4394366 67.5471698,87.5126761 L67.5471698,87.5126761 Z M35.9811321,60.9014085 C34.5283019,60.9014085 33.3396226,62.0929577 33.3396226,63.5492958 C33.3396226,65.0056338 34.5283019,66.1971831 35.9811321,66.1971831 C37.4339623,66.1971831 38.6226415,65.0056338 38.6226415,63.5492958 C38.6226415,62.0929577 37.4339623,60.9014085 35.9811321,60.9014085 L35.9811321,60.9014085 Z M35.9811321,47.6619718 C34.5283019,47.6619718 33.3396226,48.8535211 33.3396226,50.3098592 C33.3396226,51.7661972 34.5283019,52.9577465 35.9811321,52.9577465 C37.4339623,52.9577465 38.6226415,51.7661972 38.6226415,50.3098592 C38.6226415,48.8535211 37.4339623,47.6619718 35.9811321,47.6619718 L35.9811321,47.6619718 Z M35.9811321,74.1408451 C34.5283019,74.1408451 33.3396226,75.3323944 33.3396226,76.7887324 C33.3396226,78.2450704 34.5283019,79.4366197 35.9811321,79.4366197 C37.4339623,79.4366197 38.6226415,78.2450704 38.6226415,76.7887324 C38.6226415,75.3323944 37.4339623,74.1408451 35.9811321,74.1408451 L35.9811321,74.1408451 Z" id="Shape"></path>
                            </g>
                        </g>
                    </g>
                </g>
            </g>
        </g>
    </g>
</svg>