<?xml version="1.0" encoding="UTF-8"?>
<svg width="53px" height="52px" viewBox="0 0 53 52" version="1.1" xmlns="http://www.w3.org/2000/svg" xmlns:xlink="http://www.w3.org/1999/xlink">
    <!-- Generator: Sketch 40.1 (33804) - http://www.bohemiancoding.com/sketch -->
    <title>3</title>
    <desc>Created with Sketch.</desc>
    <defs></defs>
    <g id="Page-1" stroke="none" stroke-width="1" fill="none" fill-rule="evenodd">
        <g id="product_ogpo" transform="translate(-593.000000, -860.000000)" fill="#84A4B2">
            <g id="adv_ogpo" transform="translate(0.000000, 670.000000)">
                <g id="2" transform="translate(542.000000, 170.000000)">
                    <g id="3" transform="translate(51.000000, 20.000000)">
                        <path d="M16.9095238,38.859962 L10.1583333,38.859962 C9.14880952,38.859962 8.32857143,39.6444023 8.32857143,40.6098672 C8.32857143,41.5753321 9.14880952,42.3597723 10.1583333,42.3597723 L16.9095238,42.3597723 C17.9190476,42.3597723 18.7392857,41.5753321 18.7392857,40.6098672 C18.7392857,39.6444023 17.9190476,38.859962 16.9095238,38.859962 L16.9095238,38.859962 Z" id="Shape"></path>
                        <path d="M8.32857143,32.4637571 C8.32857143,33.429222 9.14880952,34.2136622 10.1583333,34.2136622 L16.9095238,34.2136622 C17.9190476,34.2136622 18.7392857,33.429222 18.7392857,32.4637571 C18.7392857,31.4982922 17.9190476,30.713852 16.9095238,30.713852 L10.1583333,30.713852 C9.14880952,30.713852 8.32857143,31.4982922 8.32857143,32.4637571 L8.32857143,32.4637571 Z" id="Shape"></path>
                        <path d="M21.2630952,24.3176471 C21.2630952,25.283112 22.0833333,26.0675522 23.0928571,26.0675522 L29.8440476,26.0675522 C30.8535714,26.0675522 31.6738095,25.283112 31.6738095,24.3176471 C31.6738095,23.3521822 30.8535714,22.5677419 29.8440476,22.5677419 L23.0928571,22.5677419 C22.0833333,22.5677419 21.2630952,23.3521822 21.2630952,24.3176471 L21.2630952,24.3176471 Z" id="Shape"></path>
                        <path d="M29.9071429,38.859962 L23.0928571,38.859962 C22.0833333,38.859962 21.2630952,39.6444023 21.2630952,40.6098672 C21.2630952,41.5753321 22.0833333,42.3597723 23.0928571,42.3597723 L29.8440476,42.3597723 C30.8535714,42.3597723 31.6738095,41.5753321 31.6738095,40.6098672 C31.6738095,39.6444023 30.9166667,38.859962 29.9071429,38.859962 L29.9071429,38.859962 Z" id="Shape"></path>
                        <path d="M29.9071429,30.713852 L23.0928571,30.713852 C22.0833333,30.713852 21.2630952,31.4982922 21.2630952,32.4637571 C21.2630952,33.429222 22.0833333,34.2136622 23.0928571,34.2136622 L29.8440476,34.2136622 C30.8535714,34.2136622 31.6738095,33.429222 31.6738095,32.4637571 C31.6738095,31.4982922 30.9166667,30.713852 29.9071429,30.713852 L29.9071429,30.713852 Z" id="Shape"></path>
                        <path d="M34.2607143,24.3176471 C34.2607143,25.283112 35.0809524,26.0675522 36.0904762,26.0675522 L42.8416667,26.0675522 C43.8511905,26.0675522 44.6714286,25.283112 44.6714286,24.3176471 C44.6714286,23.3521822 43.8511905,22.5677419 42.8416667,22.5677419 L36.0904762,22.5677419 C35.0809524,22.5677419 34.2607143,23.3521822 34.2607143,24.3176471 L34.2607143,24.3176471 Z" id="Shape"></path>
                        <path d="M42.8416667,38.859962 L36.0904762,38.859962 C35.0809524,38.859962 34.2607143,39.6444023 34.2607143,40.6098672 C34.2607143,41.5753321 35.0809524,42.3597723 36.0904762,42.3597723 L42.8416667,42.3597723 C43.8511905,42.3597723 44.6714286,41.5753321 44.6714286,40.6098672 C44.6714286,39.6444023 43.8511905,38.859962 42.8416667,38.859962 L42.8416667,38.859962 Z" id="Shape"></path>
                        <path d="M42.8416667,30.713852 L36.0904762,30.713852 C35.0809524,30.713852 34.2607143,31.4982922 34.2607143,32.4637571 C34.2607143,33.429222 35.0809524,34.2136622 36.0904762,34.2136622 L42.8416667,34.2136622 C43.8511905,34.2136622 44.6714286,33.429222 44.6714286,32.4637571 C44.6714286,31.4982922 43.8511905,30.713852 42.8416667,30.713852 L42.8416667,30.713852 Z" id="Shape"></path>
                        <path d="M14.1333333,12.7924099 L14.1333333,1.87058824 C14.1333333,0.90512334 13.3130952,0.120683112 12.3035714,0.120683112 C11.2940476,0.120683112 10.4738095,0.90512334 10.4738095,1.87058824 L10.4738095,12.7924099 C10.4738095,13.7578748 11.2940476,14.542315 12.3035714,14.542315 C13.3130952,14.542315 14.1333333,13.7578748 14.1333333,12.7924099 L14.1333333,12.7924099 Z" id="Shape"></path>
                        <path d="M42.5261905,12.7924099 L42.5261905,1.87058824 C42.5261905,0.90512334 41.7059524,0.120683112 40.6964286,0.120683112 C39.6869048,0.120683112 38.8666667,0.90512334 38.8666667,1.87058824 L38.8666667,12.7924099 C38.8666667,13.7578748 39.6869048,14.542315 40.6964286,14.542315 C41.7059524,14.542315 42.5261905,13.7578748 42.5261905,12.7924099 L42.5261905,12.7924099 Z" id="Shape"></path>
                        <path d="M28.3297619,12.7924099 L28.3297619,1.87058824 C28.3297619,0.90512334 27.5095238,0.120683112 26.5,0.120683112 C25.4904762,0.120683112 24.6702381,0.90512334 24.6702381,1.87058824 L24.6702381,12.7924099 C24.6702381,13.7578748 25.4904762,14.542315 26.5,14.542315 C27.5095238,14.542315 28.3297619,13.7578748 28.3297619,12.7924099 L28.3297619,12.7924099 Z" id="Shape"></path>
                        <path d="M45.7440476,6.87893738 C44.7345238,6.87893738 43.9142857,7.66337761 43.9142857,8.6288425 C43.9142857,9.5943074 44.7345238,10.3787476 45.7440476,10.3787476 C47.5107143,10.3787476 48.9619048,11.7666034 48.9619048,13.456167 L48.9619048,44.4717268 C48.9619048,46.1612903 47.5107143,47.5491461 45.7440476,47.5491461 L7.25595238,47.5491461 C5.48928571,47.5491461 4.03809524,46.1612903 4.03809524,44.4717268 L4.03809524,13.456167 C4.03809524,11.7666034 5.48928571,10.3787476 7.25595238,10.3787476 C8.26547619,10.3787476 9.08571429,9.5943074 9.08571429,8.6288425 C9.08571429,7.66337761 8.26547619,6.87893738 7.25595238,6.87893738 C3.4702381,6.87893738 0.378571429,9.83567362 0.378571429,13.456167 L0.378571429,44.4717268 C0.378571429,48.0922201 3.4702381,51.0489564 7.25595238,51.0489564 L45.7440476,51.0489564 C49.5297619,51.0489564 52.6214286,48.0922201 52.6214286,44.4717268 L52.6214286,13.456167 C52.6214286,9.83567362 49.5297619,6.87893738 45.7440476,6.87893738 L45.7440476,6.87893738 Z" id="Shape"></path>
                        <path d="M20.8845238,6.87893738 L17.9190476,6.87893738 C16.9095238,6.87893738 16.0892857,7.66337761 16.0892857,8.6288425 C16.0892857,9.5943074 16.9095238,10.3787476 17.9190476,10.3787476 L20.8845238,10.3787476 C21.8940476,10.3787476 22.7142857,9.5943074 22.7142857,8.6288425 C22.7142857,7.66337761 21.8940476,6.87893738 20.8845238,6.87893738 L20.8845238,6.87893738 Z" id="Shape"></path>
                        <path d="M35.0809524,6.87893738 L32.1154762,6.87893738 C31.1059524,6.87893738 30.2857143,7.66337761 30.2857143,8.6288425 C30.2857143,9.5943074 31.1059524,10.3787476 32.1154762,10.3787476 L35.0809524,10.3787476 C36.0904762,10.3787476 36.9107143,9.5943074 36.9107143,8.6288425 C36.9107143,7.66337761 36.0904762,6.87893738 35.0809524,6.87893738 L35.0809524,6.87893738 Z" id="Shape"></path>
                    </g>
                </g>
            </g>
        </g>
    </g>
</svg>