<?xml version="1.0" encoding="UTF-8"?>
<svg width="55px" height="46px" viewBox="0 0 55 46" version="1.1" xmlns="http://www.w3.org/2000/svg" xmlns:xlink="http://www.w3.org/1999/xlink">
    <!-- Generator: Sketch 40.1 (33804) - http://www.bohemiancoding.com/sketch -->
    <title>Group</title>
    <desc>Created with Sketch.</desc>
    <defs></defs>
    <g id="Page-1" stroke="none" stroke-width="1" fill="none" fill-rule="evenodd">
        <g id="product_ogpo" transform="translate(-386.000000, -865.000000)" fill="#84A4B2">
            <g id="adv_ogpo" transform="translate(0.000000, 670.000000)">
                <g id="5" transform="translate(330.000000, 170.000000)">
                    <g id="Group" transform="translate(56.000000, 25.000000)">
                        <path d="M4.27777778,0.233411333 C1.93959333,0.233411333 0,2.17301689 0,4.51118911 L0,33.8445286 C0,36.1827008 1.93959333,38.1223063 4.27777778,38.1223063 L21.3888889,38.1223063 L21.3888889,41.788973 L20.1666667,41.788973 C19.1541472,41.788973 18.3333333,42.6097563 18.3333333,43.6223063 C18.3333333,44.6347952 19.1541472,45.4556397 20.1666667,45.4556397 L34.8333333,45.4556397 C35.8458528,45.4556397 36.6666667,44.6347952 36.6666667,43.6223063 C36.6666667,42.6097563 35.8458528,41.788973 34.8333333,41.788973 L33.6111111,41.788973 L33.6111111,38.1223063 L50.7222222,38.1223063 C53.0604067,38.1223063 55,36.1827008 55,33.8445286 L55,4.51118911 C55,2.17301689 53.0604067,0.233411333 50.7222222,0.233411333 L4.27777778,0.233411333 Z M4.27777778,3.900078 L50.7222222,3.900078 C51.0924944,3.900078 51.3333333,4.14091689 51.3333333,4.51118911 L51.3333333,27.1223063 L3.66666667,27.1223063 L3.66666667,4.51118911 C3.66666667,4.14091689 3.90750556,3.900078 4.27777778,3.900078 L4.27777778,3.900078 Z M3.66666667,30.788973 L51.3333333,30.788973 L51.3333333,33.8445286 C51.3333333,34.2148008 51.0924944,34.4556397 50.7222222,34.4556397 L4.27777778,34.4556397 C3.90750556,34.4556397 3.66666667,34.2148008 3.66666667,33.8445286 L3.66666667,30.788973 Z M27.5,31.4000841 C26.824985,31.4000841 26.2777778,31.947273 26.2777778,32.6223063 C26.2777778,33.2973397 26.824985,33.8445286 27.5,33.8445286 C28.175015,33.8445286 28.7222222,33.2973397 28.7222222,32.6223063 C28.7222222,31.947273 28.175015,31.4000841 27.5,31.4000841 L27.5,31.4000841 Z M25.0555556,38.1223063 L29.9444444,38.1223063 L29.9444444,41.788973 L25.0555556,41.788973 L25.0555556,38.1223063 Z" id="Shape"></path>
                    </g>
                </g>
            </g>
        </g>
    </g>
</svg>