<?xml version="1.0" encoding="UTF-8"?>
<svg width="53px" height="47px" viewBox="0 0 53 47" version="1.1" xmlns="http://www.w3.org/2000/svg" xmlns:xlink="http://www.w3.org/1999/xlink">
    <!-- Generator: Sketch 40.1 (33804) - http://www.bohemiancoding.com/sketch -->
    <title>icon_7</title>
    <desc>Created with Sketch.</desc>
    <defs></defs>
    <g id="Page-1" stroke="none" stroke-width="1" fill="none" fill-rule="evenodd">
        <g id="product_ogpo" transform="translate(-998.000000, -862.000000)" fill="#84A4B2">
            <g id="adv_ogpo" transform="translate(0.000000, 670.000000)">
                <g id="3" transform="translate(939.000000, 170.000000)">
                    <g id="icon_7" transform="translate(59.000000, 22.000000)">
                        <path d="M50.9215435,0.00312173635 C50.4067823,0.0343367843 49.9243117,0.26442627 49.5760556,0.644782869 C42.488141,8.06062227 29.8037516,21.9224436 22.2936999,29.8315612 L12.461288,22.2968287 C11.8963079,21.8562065 11.1378921,21.753803 10.4762859,22.028808 C9.81467976,22.303813 9.35231544,22.9136493 9.26613951,23.6249327 C9.17996359,24.3362162 9.48331812,25.0388235 10.0601095,25.4638672 L21.3208086,34.0750563 C22.1232717,34.6810856 23.2519609,34.5922124 23.9496851,33.8680582 C31.3494614,26.1260625 45.1124734,11.0566969 52.43263,3.39789133 C53.0184552,2.81639465 53.1838591,1.93331552 52.8481949,1.17922059 C52.5125307,0.425125662 51.7456816,-0.042987223 50.9215435,0.00312173635 L50.9215435,0.00312173635 Z M1.98718247,2.67343094 C0.889737392,2.67354052 0.000109728064,3.56316807 -3.55271368e-15,4.66061314 L-3.55271368e-15,44.4042969 C0.000109728064,45.501742 0.889737392,46.3913695 1.98718247,46.3914791 L41.7308258,46.3914791 C42.8282708,46.3913694 43.7178983,45.5017419 43.718008,44.4042969 L43.718008,23.2076205 C43.7281432,22.4909712 43.3516207,21.82438 42.7326183,21.4630977 C42.1136159,21.1018153 41.3480357,21.1018153 40.7290333,21.4630977 C40.1100309,21.82438 39.7335084,22.4909712 39.7436436,23.2076205 L39.7436436,42.4171147 L3.974364,42.4171147 L3.974364,6.64780196 L37.7564614,6.64780196 C38.4730558,6.65785157 39.139559,6.28130945 39.5007886,5.66234124 C39.8620183,5.04337304 39.8620183,4.27785986 39.5007886,3.65889166 C39.139559,3.03992346 38.4730558,2.66338133 37.7564614,2.67343094 L1.98718247,2.67343094 L1.98718247,2.67343094 Z" id="Shape"></path>
                    </g>
                </g>
            </g>
        </g>
    </g>
</svg>