<?xml version="1.0" encoding="UTF-8" standalone="no"?>
<svg width="128px" height="128px" viewBox="0 0 128 128" version="1.1" xmlns="http://www.w3.org/2000/svg" xmlns:xlink="http://www.w3.org/1999/xlink">
    <!-- Generator: Sketch 3.8.1 (29687) - http://www.bohemiancoding.com/sketch -->
    <title>icon</title>
    <desc>Created with Sketch.</desc>
    <defs></defs>
    <g id="Symbols" stroke="none" stroke-width="1" fill="none" fill-rule="evenodd">
        <g id="what_i_can_insure" transform="translate(-122.000000, -111.000000)">
            <g id="1" transform="translate(122.000000, 111.000000)">
                <g id="icon">
                    <rect id="Rectangle-474" fill="#FFFFFF" x="0" y="0" width="128" height="128"></rect>
                    <g id="dtp" transform="translate(1.000000, 37.000000)" fill="#84A4B2">
                        <g id="Rounded_Rectangle_1_copy_3_1_">
                            <g id="Rounded_Rectangle_1_copy_3">
                                <path d="M44.3333333,25.4878049 L40.3333333,25.4878049 C39.5333333,25.4878049 39,26.0243902 39,26.8292683 C39,27.6341463 39.5333333,28.1707317 40.3333333,28.1707317 L44.3333333,28.1707317 C45.1333333,28.1707317 45.6666667,27.6341463 45.6666667,26.8292683 C45.6666667,26.0243902 45.1333333,25.4878049 44.3333333,25.4878049 L44.3333333,25.4878049 Z M115.933333,38.6341463 C115.133333,37.4268293 113.933333,36.2195122 112.466667,35.6829268 C111.8,35.4146341 111,35.5487805 110.333333,35.2804878 C109.8,35.5487805 108.6,35.5487805 107.933333,35.8170732 C106.466667,36.3536585 105.266667,37.695122 104.466667,39.0365854 C102.466667,42.7926829 105,46.6829268 107.8,47.8902439 C108.466667,48.1585366 109.8,48.695122 111,48.4268293 C114.2,47.6219512 117.666667,44.9390244 116.466667,40.5121951 C116.2,39.8414634 116.2,39.304878 115.933333,38.6341463 L115.933333,38.6341463 Z M111,45.6097561 C108.066667,46.4146341 105.933333,42.9268293 107,40.3780488 C107.266667,39.7073171 108.2,38.7682927 108.866667,38.5 C109.266667,38.3658537 109.933333,38.3658537 110.333333,38.2317073 C111.8,38.6341463 112.733333,38.7682927 113.4,39.9756098 C114.866667,42.3902439 113,45.0731707 111,45.6097561 L111,45.6097561 Z M26.6,38.6341463 C25.8,37.4268293 24.6,36.2195122 23.1333333,35.6829268 C22.4666667,35.4146341 21.6666667,35.5487805 21,35.2804878 C20.4666667,35.5487805 19.2666667,35.5487805 18.6,35.8170732 C17.1333333,36.3536585 15.9333333,37.695122 15.1333333,39.0365854 C13.1333333,42.7926829 15.6666667,46.6829268 18.4666667,47.8902439 C19.1333333,48.1585366 20.4666667,48.695122 21.6666667,48.4268293 C24.8666667,47.6219512 28.3333333,44.9390244 27.1333333,40.5121951 C26.8666667,39.8414634 26.8666667,39.304878 26.6,38.6341463 L26.6,38.6341463 Z M21.6666667,45.6097561 C18.7333333,46.4146341 16.6,42.9268293 17.6666667,40.3780488 C17.9333333,39.7073171 18.8666667,38.7682927 19.5333333,38.5 C19.9333333,38.3658537 20.6,38.3658537 21,38.2317073 C22.4666667,38.6341463 23.4,38.7682927 24.0666667,39.9756098 C25.5333333,42.3902439 23.6666667,45.0731707 21.6666667,45.6097561 L21.6666667,45.6097561 Z M119.666667,0.134146341 C119.133333,0.536585366 118.333333,0.402439024 117.8,0.670731707 C116.6,1.20731707 115.133333,2.14634146 114.333333,3.2195122 C113.533333,4.42682927 112.866667,5.76829268 112.066667,6.97560976 C110.6,9.3902439 108.866667,11.6707317 107.4,14.0853659 C106.2,15.9634146 105.266667,18.2439024 103.533333,19.3170732 C102.6,19.9878049 101.533333,19.9878049 100.333333,20.3902439 C96.2,21.597561 91.8,21.4634146 90.0666667,25.4878049 C89.5333333,26.695122 89.6666667,28.4390244 89.6666667,30.1829268 L89.6666667,38.7682927 C89.6666667,40.6463415 89.5333333,42.5243902 90.2,43.7317073 C90.7333333,44.5365854 91.5333333,45.4756098 92.4666667,45.8780488 C93,46.1463415 93.8,46.0121951 94.2,46.4146341 L99.4,46.4146341 C99.4,46.4146341 100.333333,48.4268293 100.466667,48.5609756 C101.266667,49.902439 102.6,51.1097561 103.933333,52.0487805 C104.733333,52.5853659 105.8,52.9878049 106.733333,53.2560976 C107.666667,53.5243902 108.6,53.6585366 109.4,53.7926829 L110.733333,53.7926829 C115.533333,53.5243902 119.266667,49.902439 120.6,46.4146341 L127,46.4146341 L127,43.597561 L125.266667,43.597561 C124.066667,43.597561 120.066667,43.3292683 119.266667,43.7317073 C118.466667,44 118.466667,45.0731707 118.066667,45.7439024 C117.4,46.9512195 116.6,48.2926829 115.533333,49.097561 C114.733333,49.6341463 113.8,50.1707317 112.866667,50.5731707 C108.733333,52.1829268 104.466667,49.5 103,47.0853659 C102.466667,46.2804878 102.333333,45.3414634 101.8,44.2682927 C101.666667,44 101.266667,43.8658537 101.133333,43.597561 C99.1333333,43.4634146 94.4666667,43.8658537 93.2666667,43.0609756 C92.3333333,42.3902439 92.4666667,40.7804878 92.4666667,39.1707317 L92.4666667,30.5853659 C92.4666667,29.5121951 92.2,27.6341463 92.6,26.695122 C93.9333333,23.2073171 101.533333,23.8780488 104.733333,21.8658537 C107.133333,20.3902439 108.2,17.9756098 109.8,15.5609756 C111.266667,13.1463415 113.133333,10.597561 114.6,8.18292683 C115.266667,7.1097561 115.666667,6.03658537 116.333333,5.09756098 C116.733333,4.42682927 117.666667,3.75609756 118.466667,3.48780488 C118.866667,3.35365854 119.266667,3.35365854 119.666667,3.08536585 L127,3.08536585 L127,0.134146341 L119.666667,0.134146341 L119.666667,0.134146341 Z M120.466667,5.36585366 C119.8,5.63414634 119,6.17073171 118.333333,6.70731707 C117.533333,7.24390244 117.266667,8.45121951 116.733333,9.25609756 C115.4,11.2682927 114.2,13.4146341 113,15.5609756 C112.333333,16.7682927 110.066667,19.1829268 110.866667,21.0609756 C111.666667,22.804878 114.066667,22.5365854 116.6,22.5365854 L127,22.5365854 L127,19.7195122 L113.666667,19.7195122 C113.933333,18.7804878 114.733333,17.8414634 115.266667,17.0365854 C116.466667,15.0243902 117.533333,13.1463415 118.733333,11.1341463 C119.533333,9.79268293 120.066667,8.45121951 121.533333,7.7804878 C122.333333,7.37804878 123.933333,7.64634146 125,7.64634146 L127,7.64634146 L127,4.96341463 L121.8,4.96341463 C121.4,5.23170732 120.866667,5.09756098 120.466667,5.36585366 L120.466667,5.36585366 Z M84.2,5.90243902 C83.9333333,5.23170732 83.1333333,4.96341463 82.4666667,5.23170732 C81.8,5.5 81.5333333,6.30487805 81.8,6.97560976 L85.6666667,15.2926829 C85.9333333,15.9634146 86.7333333,16.2317073 87.4,15.9634146 C88.0666667,15.695122 88.3333333,14.8902439 88.0666667,14.2195122 L84.2,5.90243902 L84.2,5.90243902 Z M90.6,12.6097561 C91.2666667,12.8780488 92.0666667,12.4756098 92.3333333,11.804878 L95.5333333,3.08536585 C95.8,2.41463415 95.4,1.6097561 94.7333333,1.34146341 C94.0666667,1.07317073 93.2666667,1.47560976 93,2.14634146 L89.8,10.8658537 C89.5333333,11.5365854 89.9333333,12.3414634 90.6,12.6097561 L90.6,12.6097561 Z M82.6,18.9146341 L80.2,18.9146341 C79.4,18.6463415 78.3333333,18.1097561 77.9333333,17.4390244 C77.2666667,16.5 76.8666667,15.2926829 76.2,14.2195122 C74.7333333,11.804878 73.4,9.12195122 71.8,6.70731707 C70.6,4.56097561 69.8,2.54878049 67.8,1.20731707 C65.2666667,-0.402439024 60.2,0.134146341 56.3333333,0.134146341 L30.3333333,0.134146341 C29.8,0.536585366 29,0.402439024 28.4666667,0.670731707 C27.2666667,1.20731707 25.8,2.14634146 25,3.2195122 C24.2,4.42682927 23.5333333,5.76829268 22.7333333,6.97560976 C21.2666667,9.3902439 19.5333333,11.6707317 18.0666667,14.0853659 C16.8666667,15.9634146 15.9333333,18.2439024 14.2,19.3170732 C13.2666667,19.7195122 12.3333333,19.8536585 11,20.2560976 C6.86666667,21.4634146 2.46666667,21.3292683 0.733333333,25.3536585 C0.2,26.5609756 0.333333333,28.304878 0.333333333,30.0487805 L0.333333333,38.6341463 C0.333333333,40.5121951 0.2,42.3902439 0.866666667,43.597561 C1.4,44.402439 2.2,45.3414634 3.13333333,45.7439024 C3.66666667,46.0121951 4.46666667,45.8780488 4.86666667,46.2804878 L10.0666667,46.2804878 C10.0666667,46.2804878 11,48.2926829 11.1333333,48.4268293 C11.9333333,49.7682927 13.2666667,50.9756098 14.6,51.9146341 C15.4,52.4512195 16.4666667,52.8536585 17.4,53.1219512 C18.3333333,53.3902439 19.2666667,53.5243902 20.0666667,53.6585366 L21.4,53.6585366 C26.2,53.3902439 29.9333333,49.7682927 31.2666667,46.2804878 L51,46.2804878 C51.1333333,46.4146341 51.8,48.1585366 52.0666667,48.4268293 C52.8666667,49.7682927 54.2,50.9756098 55.5333333,51.9146341 C56.3333333,52.4512195 57.4,52.9878049 58.4666667,53.2560976 C59.4,53.5243902 60.2,53.6585366 61,53.7926829 L62.6,53.7926829 C67.4,53.3902439 70.8666667,49.7682927 72.4666667,46.4146341 C76.7333333,46.4146341 82.6,47.0853659 85.1333333,45.2073171 C86.8666667,44 86.8666667,41.4512195 86.8666667,38.3658537 L86.8666667,27.097561 C86.8666667,24.2804878 86.8666667,22.2682927 85.6666667,20.7926829 C85.1333333,19.7195122 83.9333333,19.1829268 82.6,18.9146341 L82.6,18.9146341 Z M83.6666667,42.6585366 C83.1333333,43.4634146 81.9333333,43.4634146 80.6,43.4634146 L73.9333333,43.4634146 C73,43.4634146 71.5333333,43.3292683 71,43.597561 C70.2,43.8658537 70.2,44.804878 69.8,45.6097561 C69.2666667,46.8170732 68.3333333,48.1585366 67.4,48.8292683 C66.6,49.3658537 65.6666667,50.0365854 64.6,50.304878 C60.4666667,51.9146341 56.0666667,49.097561 54.6,46.8170732 C53.9333333,45.8780488 53.6666667,44.5365854 53,43.597561 C51.2666667,43.195122 48.8666667,43.4634146 46.8666667,43.4634146 L35.8,43.4634146 C34.6,43.4634146 30.6,43.195122 29.8,43.597561 C29,43.8658537 29,44.9390244 28.6,45.6097561 C27.9333333,46.8170732 27.1333333,48.1585366 26.0666667,48.9634146 C25.2666667,49.5 24.3333333,50.0365854 23.4,50.4390244 C19.2666667,52.0487805 15,49.3658537 13.5333333,46.9512195 C13,46.1463415 12.8666667,45.2073171 12.3333333,44.1341463 C12.2,43.8658537 11.8,43.7317073 11.6666667,43.4634146 C9.66666667,43.3292683 5,43.7317073 3.8,42.9268293 C2.86666667,42.2560976 3,40.6463415 3,39.0365854 L3,30.4512195 C3,29.3780488 2.73333333,27.5 3.13333333,26.5609756 C4.46666667,23.0731707 12.0666667,23.7439024 15.2666667,21.7317073 C17.6666667,20.2560976 18.7333333,17.8414634 20.3333333,15.4268293 C21.8,13.0121951 23.6666667,10.4634146 25.1333333,8.04878049 C25.8,6.97560976 26.2,5.90243902 26.8666667,4.96341463 C27.2666667,4.29268293 28.2,3.62195122 29,3.35365854 C29.4,3.2195122 29.8,3.2195122 30.2,2.95121951 L56.0666667,2.95121951 C59.5333333,2.95121951 64.6,2.41463415 66.6,3.8902439 C67.8,4.69512195 68.2,6.43902439 69,7.64634146 C70.6,10.3292683 72.2,13.2804878 73.8,16.097561 C74.7333333,17.5731707 75.2666667,19.4512195 76.6,20.3902439 C77.5333333,21.0609756 78.6,21.4634146 79.9333333,21.7317073 C81.6666667,22.1341463 82.7333333,21.3292683 83.6666667,22.5365854 C84.3333333,23.4756098 84.0666667,25.7560976 84.0666667,27.2317073 L84.0666667,37.9634146 C84.2,39.5731707 84.3333333,41.7195122 83.6666667,42.6585366 L83.6666667,42.6585366 Z M94.2,14.7560976 C94.7333333,15.2926829 95.5333333,15.2926829 96.0666667,14.7560976 L102.6,10.195122 C103.133333,9.65853659 103.266667,8.85365854 102.733333,8.31707317 C102.2,7.7804878 101.4,7.7804878 100.866667,8.31707317 L94.3333333,12.8780488 C93.6666667,13.4146341 93.6666667,14.2195122 94.2,14.7560976 L94.2,14.7560976 Z M61.9333333,35.2804878 C61.4,35.6829268 60.0666667,35.5487805 59.4,35.8170732 C58.0666667,36.3536585 56.7333333,37.8292683 56.0666667,39.304878 C54.4666667,43.195122 57,46.8170732 59.8,47.8902439 C60.4666667,48.1585366 61.6666667,48.5609756 62.7333333,48.4268293 C64.0666667,48.1585366 65.1333333,47.7560976 66.0666667,47.0853659 C68.0666667,45.6097561 69.4,41.4512195 67.6666667,38.5 C66.3333333,36.6219512 64.6,35.8170732 61.9333333,35.2804878 L61.9333333,35.2804878 Z M62.6,45.6097561 C59.9333333,46.2804878 57.5333333,43.0609756 58.6,40.6463415 C59,39.7073171 59.8,38.902439 60.7333333,38.5 C61,38.3658537 61.5333333,38.5 61.9333333,38.3658537 C63.4,38.6341463 64.3333333,39.0365854 65,39.9756098 C66.6,42.2560976 64.7333333,45.0731707 62.6,45.6097561 L62.6,45.6097561 Z M46.4666667,5.76829268 C46.3333333,5.5 46.0666667,5.36585366 45.9333333,5.09756098 C44.6,4.82926829 42.6,4.96341463 40.8666667,4.96341463 L32.4666667,4.96341463 C32.0666667,5.23170732 31.5333333,5.09756098 31,5.36585366 C30.3333333,5.63414634 29.5333333,6.17073171 28.8666667,6.70731707 C28.0666667,7.24390244 27.8,8.45121951 27.2666667,9.25609756 C25.9333333,11.2682927 24.7333333,13.4146341 23.5333333,15.5609756 C22.8666667,16.7682927 20.6,19.1829268 21.4,21.0609756 C22.2,22.804878 24.6,22.5365854 27.1333333,22.5365854 L40.2,22.5365854 C42.2,22.5365854 44.8666667,22.804878 46.0666667,22 C46.3333333,20.7926829 46.3333333,18.7804878 46.3333333,17.1707317 L46.3333333,10.195122 C46.6,9.12195122 46.8666667,6.70731707 46.4666667,5.76829268 L46.4666667,5.76829268 Z M43.6666667,19.8536585 L24.3333333,19.8536585 C24.6,18.9146341 25.4,17.9756098 25.9333333,17.1707317 C27.1333333,15.1585366 28.2,13.2804878 29.4,11.2682927 C30.2,9.92682927 30.7333333,8.58536585 32.2,7.91463415 C33,7.51219512 34.6,7.7804878 35.6666667,7.7804878 L43.6666667,7.7804878 L43.6666667,19.8536585 L43.6666667,19.8536585 Z M71,25.4878049 L67,25.4878049 C66.2,25.4878049 65.6666667,26.0243902 65.6666667,26.8292683 C65.6666667,27.6341463 66.2,28.1707317 67,28.1707317 L71,28.1707317 C71.8,28.1707317 72.3333333,27.6341463 72.3333333,26.8292683 C72.3333333,26.0243902 71.8,25.4878049 71,25.4878049 L71,25.4878049 Z M70.4666667,22.5365854 C71.1333333,22.2682927 71.4,21.597561 71.9333333,21.195122 C71.9333333,20.6585366 72.3333333,20.2560976 72.0666667,19.5853659 C71.8,18.2439024 71,17.1707317 70.3333333,16.097561 C69.4,14.3536585 68.6,12.6097561 67.5333333,10.8658537 C66.0666667,8.45121951 65.5333333,6.03658537 62.6,5.09756098 C61.5333333,4.69512195 59.8,4.96341463 58.4666667,4.96341463 L50.4666667,4.96341463 C50.3333333,5.09756098 50.3333333,5.09756098 50.0666667,5.09756098 C49.8,5.23170732 49.6666667,5.5 49.4,5.63414634 C49.1333333,6.84146341 49.2666667,8.58536585 49.2666667,10.0609756 L49.2666667,17.304878 C49.2666667,18.1097561 49,20.9268293 49.4,21.4634146 C49.5333333,23.3414634 53.1333333,22.6707317 55.1333333,22.6707317 L65.4,22.6707317 C67.1333333,22.6707317 69.2666667,22.9390244 70.4666667,22.5365854 L70.4666667,22.5365854 Z M52.3333333,19.8536585 L52.3333333,7.7804878 L59.2666667,7.7804878 C60.7333333,7.7804878 62.0666667,7.64634146 62.8666667,8.31707317 C63.9333333,8.98780488 64.3333333,10.597561 65,11.804878 C65.9333333,13.6829268 67,15.695122 68.0666667,17.4390244 C68.4666667,18.1097561 68.6,19.0487805 69.2666667,19.5853659 L69.2666667,19.7195122 L52.3333333,19.7195122 L52.3333333,19.8536585 Z" id="Shape"></path>
                            </g>
                        </g>
                    </g>
                </g>
            </g>
        </g>
    </g>
</svg>