<?xml version="1.0" encoding="UTF-8"?>
<svg width="67px" height="58px" viewBox="0 0 67 58" version="1.1" xmlns="http://www.w3.org/2000/svg" xmlns:xlink="http://www.w3.org/1999/xlink">
    <!-- Generator: Sketch 40.1 (33804) - http://www.bohemiancoding.com/sketch -->
    <title>Shape</title>
    <desc>Created with Sketch.</desc>
    <defs></defs>
    <g id="Page-1" stroke="none" stroke-width="1" fill="none" fill-rule="evenodd">
        <g id="product_ogpo" transform="translate(-1194.000000, -856.000000)" fill="#84A4B2">
            <g id="adv_ogpo" transform="translate(0.000000, 670.000000)">
                <g id="7" transform="translate(1138.000000, 170.000000)">
                    <path d="M120.660192,35.065603 L103.719957,18.1231945 C101.320834,15.7276936 97.422529,15.7284182 95.0263035,18.1239191 L89.4585391,23.6924081 L83.8907748,18.1239191 C81.4952738,15.7284182 77.5955201,15.726969 75.1978454,18.1239191 L58.2568861,35.065603 C57.0953653,36.2263993 56.4569998,37.7697801 56.4569998,39.4117054 C56.4562752,41.0543553 57.0960898,42.5970115 58.2771747,43.7773717 L66.883153,52.0594575 C66.9077891,53.7977535 67.6468729,55.4556198 68.9707024,56.6917737 C69.9394818,57.5960644 71.1263634,58.1648691 72.3328089,58.3344236 C72.5552586,59.7459287 73.2052176,61.3139456 74.2297906,62.2544659 C75.1449502,63.1594812 76.3557433,63.7224892 77.6455169,63.8768272 C77.8752126,65.2252928 78.5606765,66.6005683 79.5127903,67.4765999 C80.4627303,68.3468348 81.9561143,69.191709 83.4965967,69.4554605 C83.963234,71.0901399 84.8841903,72.7653964 87.0869498,73.503031 C87.4325801,73.6189657 88.1665917,73.8204023 89.078853,73.8204023 C90.1845802,73.8204023 91.5518852,73.5240442 92.8018063,72.4161431 C92.8249932,72.3958545 92.8474556,72.3726676 92.8713671,72.3509298 C92.9757084,72.2451394 93.1655514,72.0676144 93.4126373,71.8371942 C95.5668491,69.8206548 97.2406564,68.099749 98.1311799,66.6578111 C99.652823,67.0874941 101.482418,66.9715594 102.709876,66.0179964 C104.182972,64.9644397 104.801773,63.4551147 104.843075,61.9769472 C106.269072,61.9211536 107.708836,61.3161194 108.590664,60.4473336 C109.521765,59.5300003 110.131147,58.0612524 110.11738,56.6149669 C111.718003,56.5120749 113.156318,55.8860275 114.183065,54.8027625 C115.940925,52.9470826 115.525009,50.4131846 115.025041,49.3922346 L120.657294,43.7592569 C123.056418,41.3608577 123.056418,37.4618285 120.660192,35.065603 L120.660192,35.065603 Z M69.7873175,52.0848182 L75.8659192,46.1982334 C75.884034,46.1808432 75.9021488,46.1620038 75.919539,46.143889 C76.093441,45.9562197 76.5897865,45.6758026 77.2455422,45.6656583 C77.8455043,45.671455 78.3969188,45.9496983 78.8845691,46.4931423 C79.959139,47.6908927 79.5794528,48.9524073 79.3954064,49.3886116 L73.0805878,55.4867773 C72.3545467,55.4882265 71.5828563,55.1643339 70.9488383,54.5716177 C70.2278694,53.8991964 69.8206487,53.0122959 69.7873175,52.0848182 L69.7873175,52.0848182 Z M75.1536453,57.5120117 L81.3713686,51.508043 C81.9532159,51.3210983 83.5371739,50.9319924 84.4791434,51.8623685 C85.4124178,52.784774 85.3080766,53.8021011 85.2051845,54.2383054 L78.4251778,61.0132399 C77.7346417,61.0212104 76.8919413,60.808905 76.2296643,60.1553231 C75.6434694,59.6162267 75.2123372,58.3844204 75.1536453,57.5120117 L75.1536453,57.5120117 Z M80.4678025,63.0681826 L87.352875,56.1903561 C87.7180693,56.0302212 88.7491636,55.7787878 90.0599504,57.1750765 C90.9229394,58.0953082 90.6975913,59.3503015 90.5606435,59.8480961 L84.0740965,66.6027421 C83.2328453,66.4752139 82.1742165,65.983216 81.4713623,65.3383292 C80.8829937,64.7977836 80.5127272,63.8094402 80.4678025,63.0681826 L80.4678025,63.0681826 Z M91.431603,69.7213857 C91.1772712,69.9590519 90.9772838,70.148895 90.8512048,70.2720756 C89.7396808,71.2314353 88.3962874,70.885805 88.0079061,70.7539292 C87.2289698,70.4945253 86.647847,70.0054258 86.2485969,68.5250845 L92.7264487,61.778409 C93.4756768,61.3733621 94.6654567,62.0167998 95.0886184,62.5341584 C95.613223,63.1754222 95.845817,64.1673886 95.9190008,64.6724292 C95.758866,65.1694992 94.9219623,66.4527515 91.431603,69.7213857 L91.431603,69.7213857 Z M112.081024,52.8079609 C111.121664,53.8209405 109.713782,53.793406 108.898616,53.6687762 L97.5268703,42.194863 C96.9624131,41.6267829 96.0465289,41.6238845 95.4762751,42.1854433 C94.9089196,42.7491758 94.9045721,43.6665092 95.4668554,44.2353138 L107.034966,55.906316 C107.411029,56.5251175 107.180609,57.7663435 106.557459,58.3807975 C105.974163,58.9561235 104.506864,59.3263899 103.85763,58.905402 C103.856905,58.9046774 103.856181,58.9046774 103.855456,58.9039528 L92.1547457,46.9134056 C91.5946361,46.3395288 90.6773028,46.3301091 90.1055997,46.8880449 C89.5317229,47.4467053 89.520854,48.3647632 90.080239,48.9371909 L101.828773,60.9784595 C102.078032,61.8436223 101.993979,62.964566 100.978102,63.6920563 C100.522333,64.0456572 99.4637045,64.060149 98.7036075,63.79205 C98.5384006,62.9739857 98.1659603,61.7226154 97.3305058,60.698767 C96.5718581,59.7734631 95.1299202,58.8590281 93.580018,58.7445426 C93.5590049,57.6431629 93.2430828,56.3323761 92.1714113,55.1911438 C90.7903391,53.7209468 89.3534733,53.2151816 88.144854,53.1760536 C88.0448603,52.0949625 87.6057576,50.8805464 86.5159713,49.8023536 C85.2856142,48.5850392 83.7646958,48.3220123 82.5097025,48.3799797 C82.5357879,47.2459933 82.2227641,45.8736162 81.0402301,44.5570327 C79.7265449,43.093357 78.265043,42.7767103 77.2694537,42.7680152 C75.9637391,42.7426545 74.6413588,43.2824755 73.8240191,44.1411169 L68.3461041,49.4458544 L60.3060321,41.7079372 C59.6923027,41.0942078 59.3546429,40.2783173 59.3546429,39.4109808 C59.3546429,38.5436442 59.6923027,37.7277537 60.3060321,37.1140244 L77.2469914,20.1730651 C78.5135781,18.9064784 80.5750421,18.907203 81.8416288,20.1723405 L87.4086686,25.7408295 C87.4086686,25.7408295 77.9752063,35.1148752 77.2187323,35.9749659 C76.7115179,36.5524656 76.4774747,37.2915494 76.558629,38.0588922 C76.6767375,39.1740392 77.437559,40.2812157 78.7577655,41.260864 C82.2749348,43.8730179 87.065212,43.5215908 90.4041316,40.4072947 C91.7460759,39.156649 94.840808,36.1285793 96.4660677,34.5330279 L112.459261,50.7921462 C112.553458,51.1522684 112.723012,52.1268445 112.081024,52.8079609 L112.081024,52.8079609 Z M118.610322,41.7079372 L113.054151,47.2641081 L97.5174506,31.4680041 C97.2479024,31.1933837 96.8805343,31.0375965 96.4957759,31.0346981 C96.1233357,31.0441178 95.7414757,31.1817903 95.46758,31.4513384 C95.4154094,31.5020599 90.2229836,36.6155051 88.4281694,38.2878633 C86.0913604,40.4667112 82.8988084,40.7275643 80.4859173,38.9341993 C79.777991,38.4088701 79.52221,37.9958527 79.4584459,37.8190523 C80.1439099,37.0473619 97.0754495,20.1737897 97.0754495,20.1737897 C98.3420362,18.907203 100.402776,18.9086522 101.669362,20.1737897 L118.611046,37.1154736 C119.876908,38.3813356 119.876908,40.4413505 118.610322,41.7079372 L118.610322,41.7079372 Z" id="Shape"></path>
                </g>
            </g>
        </g>
    </g>
</svg>