<svg width="92" height="59" viewBox="0 0 92 59" fill="none" xmlns="http://www.w3.org/2000/svg">
<g clip-path="url(#clip0_1479_617)" filter="url(#filter0_d_1479_617)">
<path d="M4.5 0.995234H17.1121V35.0099C17.1121 40.4046 19.5437 43.6154 21.5215 44.9519C19.4627 46.761 13.2215 48.3582 8.52031 44.4955C5.76445 42.2137 4.5 38.4162 4.5 34.8795V0.995234ZM83.2689 29.2729V25.6872H87.1272V13.1701H82.8961C81.2588 5.62396 74.5961 0.017334 66.6365 0.017334C57.4611 0.017334 49.9879 7.51457 49.9879 16.7557V45.9624C52.5816 46.3372 55.7266 45.9135 58.3689 43.6806C61.141 41.3988 62.3893 37.6176 62.3893 34.0646V32.9726H68.6791V20.4555H62.3893V16.6579C62.3893 11.0187 70.8514 11.0187 70.8514 16.6579V29.224C70.8514 38.4488 78.3084 45.9624 87.5 45.9624V33.4941C85.1494 33.4941 83.2689 31.5872 83.2689 29.2729ZM35.5602 13.1375V31.5546C35.5602 34.0646 31.702 34.0646 31.702 31.5546V13.1375H19.252V34.7654C19.252 38.6444 20.5488 43.5665 26.5469 45.18C32.5449 46.7773 35.9816 43.4524 35.9816 43.4524C35.6412 45.6364 33.6311 47.2499 30.324 47.5759C27.8113 47.8367 24.6178 46.9892 23.0291 46.3046V57.7624C27.098 58.9847 31.3777 59.3596 35.6088 58.5284C43.2441 57.0452 48.0588 50.64 48.0588 42.0996V13.056H35.5602V13.1375Z" fill="#737373"/>
</g>
<defs>
<filter id="filter0_d_1479_617" x="0.5" y="0" width="91" height="67" filterUnits="userSpaceOnUse" color-interpolation-filters="sRGB">
<feFlood flood-opacity="0" result="BackgroundImageFix"/>
<feColorMatrix in="SourceAlpha" type="matrix" values="0 0 0 0 0 0 0 0 0 0 0 0 0 0 0 0 0 0 127 0" result="hardAlpha"/>
<feOffset dy="4"/>
<feGaussianBlur stdDeviation="2"/>
<feComposite in2="hardAlpha" operator="out"/>
<feColorMatrix type="matrix" values="0 0 0 0 0 0 0 0 0 0 0 0 0 0 0 0 0 0 0.25 0"/>
<feBlend mode="normal" in2="BackgroundImageFix" result="effect1_dropShadow_1479_617"/>
<feBlend mode="normal" in="SourceGraphic" in2="effect1_dropShadow_1479_617" result="shape"/>
</filter>
<clipPath id="clip0_1479_617">
<rect width="83" height="59" fill="white" transform="translate(4.5)"/>
</clipPath>
</defs>
</svg>
