<?xml version="1.0" encoding="UTF-8" standalone="no"?>
<svg width="128px" height="128px" viewBox="0 0 128 128" version="1.1" xmlns="http://www.w3.org/2000/svg" xmlns:xlink="http://www.w3.org/1999/xlink">
    <!-- Generator: Sketch 3.8.1 (29687) - http://www.bohemiancoding.com/sketch -->
    <title>icon</title>
    <desc>Created with Sketch.</desc>
    <defs></defs>
    <g id="Symbols" stroke="none" stroke-width="1" fill="none" fill-rule="evenodd">
        <g id="what_i_can_insure" transform="translate(-478.000000, -111.000000)">
            <g id="2" transform="translate(466.000000, 111.000000)">
                <g id="icon" transform="translate(12.000000, 0.000000)">
                    <rect id="Rectangle-474" fill="#FFFFFF" x="0" y="0" width="128" height="128"></rect>
                    <g id="mirror" transform="translate(19.000000, 35.000000)" fill="#84A4B2">
                        <g id="Rounded_Rectangle_2_copy_10_1_">
                            <g id="Rounded_Rectangle_2_copy_10">
                                <path d="M70.0343284,30.2943396 L65.9597015,34.3698113 C65.4164179,34.9132075 65.4164179,35.7283019 65.9597015,36.2716981 C66.5029851,36.8150943 67.3179104,36.8150943 67.861194,36.2716981 L71.9358209,32.1962264 C72.4791045,31.6528302 72.4791045,30.8377358 71.9358209,30.2943396 C71.3925373,29.7509434 70.5776119,29.7509434 70.0343284,30.2943396 L70.0343284,30.2943396 Z M32.5477612,13.9924528 C32.0044776,13.4490566 31.1895522,13.4490566 30.6462687,13.9924528 L23.8552239,20.7849057 C23.3119403,21.3283019 23.3119403,22.1433962 23.8552239,22.6867925 C24.3985075,23.2301887 25.2134328,23.2301887 25.7567164,22.6867925 L32.5477612,15.8943396 C33.0910448,15.3509434 33.0910448,14.5358491 32.5477612,13.9924528 L32.5477612,13.9924528 Z M90,38.445283 L90,36.1358491 L90,13.5849057 C90,6.11320755 83.8880597,0 76.4179104,0 L22.9044776,0 C22.9044776,0 22.9044776,0 22.7686567,0 C15.7059701,0.271698113 9.86567164,6.2490566 9.86567164,13.5849057 L9.86567164,38.0377358 C9.86567164,39.6679245 10.1373134,41.1622642 10.680597,42.6566038 L10.680597,42.6566038 C10.1373134,42.7924528 9.45820896,42.9283019 9.05074627,43.2 C8.64328358,43.4716981 8.50746269,43.8792453 8.1,44.1509434 C7.42089552,44.5584906 6.47014925,44.9660377 5.65522388,45.2377358 C3.88955224,45.9169811 1.9880597,46.1886792 0.901492537,47.6830189 C-0.185074627,49.4490566 0.358208955,52.4377358 0.901492537,54.4754717 C1.85223881,58.0075472 3.07462687,61.6754717 4.43283582,64.8 C5.51940299,67.245283 6.47014925,69.690566 9.05074627,70.5056604 C12.038806,71.4566038 15.1626866,68.4679245 16.5208955,67.3811321 C18.8298507,65.6150943 20.5955224,63.5773585 22.361194,61.2679245 C23.4477612,60.1811321 24.5343284,59.2301887 25.6208955,58.1433962 C27.658209,56.1056604 29.2880597,54.0679245 30.7820896,51.4867925 L76.4179104,51.4867925 C83.8880597,51.4867925 90,45.3735849 90,37.9018868 L90,38.445283 C90,38.5811321 90,38.5811321 90,38.445283 L90,38.445283 Z M87.2835821,36.6792453 C87.2835821,43.4716981 81.8507463,48.9056604 75.0597015,48.9056604 L29.8313433,48.9056604 C28.880597,49.7207547 27.9298507,50.8075472 27.1149254,51.6226415 L27.3865672,51.6226415 C27.2507463,51.7584906 27.2507463,51.8943396 27.1149254,52.0301887 C26.4358209,52.9811321 26.0283582,53.5245283 25.3492537,54.4754717 C24.941791,54.8830189 24.3985075,55.290566 23.9910448,55.8339623 C22.361194,57.3283019 20.1880597,59.3660377 18.8298507,61.1320755 C18.558209,61.5396226 18.4223881,62.0830189 18.0149254,62.490566 C16.9283582,63.9849057 14.7552239,65.3433962 13.261194,66.4301887 C12.3104478,67.109434 11.3597015,67.9245283 9.86567164,67.7886792 C9.45820896,67.3811321 8.91492537,67.109434 8.50746269,66.7018868 C7.82835821,65.7509434 7.55671642,64.5283019 7.01343284,63.4415094 C5.79104478,60.4528302 4.9761194,57.3283019 3.88955224,54.3396226 C3.61791045,53.3886792 2.93880597,49.9924528 3.48208955,49.3132075 C3.88955224,48.3622642 5.79104478,48.2264151 6.74179104,47.8188679 C7.69253731,47.4113208 8.77910448,47.0037736 9.59402985,46.4603774 C10.0014925,46.1886792 10.2731343,45.645283 10.5447761,45.509434 C10.9522388,45.509434 11.3597015,45.3735849 11.7671642,45.3735849 L11.9029851,45.3735849 L11.9029851,45.3735849 C12.038806,45.509434 12.038806,45.645283 12.1746269,45.645283 C13.5328358,44.8301887 14.0761194,43.7433962 14.0761194,42.6566038 C13.1253731,40.890566 12.5820896,38.8528302 12.5820896,36.6792453 L12.5820896,14.9433962 C12.5820896,8.1509434 18.0149254,2.71698113 24.8059701,2.71698113 L75.0597015,2.71698113 C81.8507463,2.71698113 87.2835821,8.1509434 87.2835821,14.9433962 L87.2835821,36.6792453 L87.2835821,36.6792453 Z M75.0597015,6.79245283 L24.8059701,6.79245283 C20.3238806,6.79245283 16.6567164,10.4603774 16.6567164,14.9433962 L16.6567164,36.6792453 C16.6567164,41.1622642 20.3238806,44.8301887 24.8059701,44.8301887 L75.0597015,44.8301887 C79.541791,44.8301887 83.2089552,41.1622642 83.2089552,36.6792453 L83.2089552,14.9433962 C83.2089552,10.4603774 79.541791,6.79245283 75.0597015,6.79245283 L75.0597015,6.79245283 Z M80.4925373,35.3207547 C80.4925373,39.1245283 77.5044776,42.1132075 73.7014925,42.1132075 L26.1641791,42.1132075 C22.361194,42.1132075 19.3731343,39.1245283 19.3731343,35.3207547 L19.3731343,16.3018868 C19.3731343,12.4981132 22.361194,9.50943396 26.1641791,9.50943396 L73.7014925,9.50943396 C77.5044776,9.50943396 80.4925373,12.4981132 80.4925373,16.3018868 L80.4925373,35.3207547 L80.4925373,35.3207547 Z M40.1537313,13.9924528 L26.5716418,27.5773585 C26.0283582,28.1207547 26.0283582,28.9358491 26.5716418,29.4792453 C27.1149254,30.0226415 27.9298507,30.0226415 28.4731343,29.4792453 L42.0552239,15.8943396 C42.5985075,15.3509434 42.5985075,14.5358491 42.0552239,13.9924528 C41.5119403,13.4490566 40.6970149,13.4490566 40.1537313,13.9924528 L40.1537313,13.9924528 Z" id="Shape"></path>
                            </g>
                        </g>
                    </g>
                </g>
            </g>
        </g>
    </g>
</svg>