<?xml version="1.0" encoding="UTF-8"?>
<svg width="66px" height="45px" viewBox="0 0 66 45" version="1.1" xmlns="http://www.w3.org/2000/svg" xmlns:xlink="http://www.w3.org/1999/xlink">
    <!-- Generator: Sketch 40.1 (33804) - http://www.bohemiancoding.com/sketch -->
    <title>Group</title>
    <desc>Created with Sketch.</desc>
    <defs></defs>
    <g id="Page-1" stroke="none" stroke-width="1" fill="none" fill-rule="evenodd">
        <g id="product_ogpo" transform="translate(-790.000000, -861.000000)" fill="#84A4B2">
            <g id="adv_ogpo" transform="translate(0.000000, 670.000000)">
                <g id="6" transform="translate(730.000000, 170.000000)">
                    <g id="Group" transform="translate(60.000000, 21.000000)">
                        <path d="M55.7938144,12.2474227 C55.7938144,11.495567 55.1848454,10.8865979 54.4329897,10.8865979 L1.36082474,10.8865979 C0.608969072,10.8865979 0,11.495567 0,12.2474227 L0,42.8659794 C0,43.6178351 0.608969072,44.2268041 1.36082474,44.2268041 L54.4329897,44.2268041 C55.1848454,44.2268041 55.7938144,43.6178351 55.7938144,42.8659794 L55.7938144,12.2474227 L55.7938144,12.2474227 Z M2.72164948,23.2680619 C7.74173196,22.6488866 11.7262268,18.371134 12.3454021,13.6082474 L43.5341443,13.6082474 C44.1512784,18.371134 48.3092784,22.5359381 53.0721649,23.1537526 L53.0721649,32.1181856 C48.3092784,32.7346392 44.2717113,36.6143505 43.6552577,41.5051546 L12.4229691,41.5051546 C11.8031134,36.4428866 7.78391753,32.4243711 2.72164948,31.8045155 L2.72164948,23.2680619 L2.72164948,23.2680619 Z M53.0721649,20.4035258 C49.6701031,19.8258557 46.8613608,17.0103093 46.2836907,13.6082474 L53.0721649,13.6082474 L53.0721649,20.4035258 L53.0721649,20.4035258 Z M9.59517526,13.6082474 C9.01546392,17.0103093 6.23802062,19.9381237 2.72164948,20.5178351 L2.72164948,13.6082474 L9.59517526,13.6082474 L9.59517526,13.6082474 Z M2.72164948,34.5540619 C6.28020619,35.1358144 9.09098969,37.9465979 9.67274227,41.5051546 L2.72164948,41.5051546 L2.72164948,34.5540619 L2.72164948,34.5540619 Z M46.4054845,41.5051546 C46.980433,38.1173814 49.6701031,35.4433608 53.0721649,34.867732 L53.0721649,41.5051546 L46.4054845,41.5051546 L46.4054845,41.5051546 Z" id="Shape"></path>
                        <path d="M59.8762887,5.44329897 L9.5257732,5.44329897 C8.77459794,5.44329897 8.16494845,6.05294845 8.16494845,6.80412371 C8.16494845,7.55529897 8.77459794,8.16494845 9.5257732,8.16494845 L58.5154639,8.16494845 L58.5154639,34.7010309 C58.5154639,35.4522062 59.1251134,36.0618557 59.8762887,36.0618557 C60.6274639,36.0618557 61.2371134,35.4522062 61.2371134,34.7010309 L61.2371134,6.80412371 C61.2371134,6.05294845 60.6274639,5.44329897 59.8762887,5.44329897 L59.8762887,5.44329897 Z" id="Shape"></path>
                        <path d="M64.6391753,0 L14.2886598,0 C13.5374845,0 12.9278351,0.609649485 12.9278351,1.36082474 C12.9278351,2.112 13.5374845,2.72164948 14.2886598,2.72164948 L63.2783505,2.72164948 L63.2783505,29.257732 C63.2783505,30.0089072 63.888,30.6185567 64.6391753,30.6185567 C65.3903505,30.6185567 66,30.0089072 66,29.257732 L66,1.36082474 C66,0.609649485 65.3903505,0 64.6391753,0 L64.6391753,0 Z" id="Shape"></path>
                    </g>
                </g>
            </g>
        </g>
    </g>
</svg>