<svg width="24" height="25" viewBox="0 0 24 25" fill="none" xmlns="http://www.w3.org/2000/svg">
<g clip-path="url(#clip0_1479_870)">
<path d="M18.8482 12.9767C18.7369 12.8652 18.6046 12.7767 18.459 12.7163C18.3135 12.656 18.1574 12.6249 17.9998 12.6249C17.8422 12.6249 17.6862 12.656 17.5406 12.7163C17.395 12.7767 17.2628 12.8652 17.1514 12.9767L15.2386 14.8895C14.3519 14.6255 12.6971 14.0255 11.6483 12.9767C10.5995 11.9279 9.9995 10.2731 9.7355 9.38635L11.6483 7.47357C11.7598 7.36223 11.8483 7.22998 11.9087 7.08441C11.969 6.93883 12.0001 6.78278 12.0001 6.62518C12.0001 6.46758 11.969 6.31153 11.9087 6.16595C11.8483 6.02038 11.7598 5.88813 11.6483 5.77679L6.84833 0.976838C6.73698 0.865304 6.60474 0.776819 6.45916 0.716447C6.31359 0.656075 6.15754 0.625 5.99994 0.625C5.84234 0.625 5.68629 0.656075 5.54071 0.716447C5.39513 0.776819 5.26289 0.865304 5.15155 0.976838L1.89718 4.23121C1.44118 4.6872 1.18439 5.31359 1.19399 5.95319C1.22159 7.66197 1.67398 13.5971 6.35153 18.2747C11.0291 22.9522 16.9642 23.4034 18.6742 23.4322H18.7078C19.3414 23.4322 19.9402 23.1826 20.3938 22.729L23.6482 19.4747C23.7597 19.3633 23.8482 19.2311 23.9086 19.0855C23.9689 18.9399 24 18.7839 24 18.6263C24 18.4687 23.9689 18.3126 23.9086 18.167C23.8482 18.0215 23.7597 17.8892 23.6482 17.7779L18.8482 12.9767ZM18.6958 21.031C17.1982 21.0058 12.0743 20.6038 8.04832 16.5767C4.00916 12.5375 3.61796 7.39557 3.59396 5.92799L5.99994 3.52201L9.10311 6.62518L7.55152 8.17677C7.41048 8.3177 7.30678 8.49157 7.24979 8.68264C7.1928 8.87372 7.18432 9.07598 7.22513 9.27115C7.25392 9.40915 7.95832 12.6815 9.9503 14.6735C11.9423 16.6655 15.2146 17.3699 15.3526 17.3987C15.5477 17.4406 15.7502 17.4328 15.9414 17.376C16.1327 17.3192 16.3065 17.2151 16.447 17.0735L17.9998 15.5219L21.103 18.6251L18.6958 21.031Z" fill="#23A6F0"/>
</g>
<defs>
<clipPath id="clip0_1479_870">
<rect width="24" height="24" fill="white" transform="translate(0 0.625)"/>
</clipPath>
</defs>
</svg>
