<?xml version="1.0" encoding="UTF-8" standalone="no"?>
<svg width="128px" height="128px" viewBox="0 0 128 128" version="1.1" xmlns="http://www.w3.org/2000/svg" xmlns:xlink="http://www.w3.org/1999/xlink">
    <!-- Generator: Sketch 3.8.1 (29687) - http://www.bohemiancoding.com/sketch -->
    <title>icon_ugon</title>
    <desc>Created with Sketch.</desc>
    <defs></defs>
    <g id="Symbols" stroke="none" stroke-width="1" fill="none" fill-rule="evenodd">
        <g id="what_i_can_insure" transform="translate(-300.000000, -111.000000)">
            <g id="5" transform="translate(300.000000, 111.000000)">
                <g id="icon_ugon">
                    <rect id="Rectangle-474" fill="#FFFFFF" x="0" y="0" width="128" height="128"></rect>
                    <g id="thief" transform="translate(26.000000, 24.000000)" fill="#84A4B2">
                        <g id="Shape_1_1_">
                            <g id="Shape_1">
                                <path d="M41.2017544,42.8474576 L35.6631579,42.8474576 C34.9877193,42.8474576 34.3122807,43.3898305 34.3122807,44.2033898 C34.3122807,45.0169492 34.8526316,45.559322 35.6631579,45.559322 L41.2017544,45.559322 C41.877193,45.559322 42.5526316,45.0169492 42.5526316,44.2033898 C42.5526316,43.3898305 42.0122807,42.8474576 41.2017544,42.8474576 L41.2017544,42.8474576 Z M71.7315789,58.7118644 C71.7315789,58.7118644 71.5964912,58.5762712 71.7315789,58.7118644 L61.8701754,54.9152542 C60.7894737,54.5084746 60.1140351,53.6949153 59.7087719,52.6101695 L59.3035088,51.3898305 C61.4649123,48.2711864 62.2754386,45.1525424 60.2491228,42.0338983 C59.3035088,40.6779661 58.222807,39.5932203 56.7368421,38.9152542 C57.4122807,36.6101695 57.6824561,34.1694915 57.6824561,31.5932203 L57.6824561,31.4576271 L57.8175439,31.4576271 C59.3035088,31.4576271 60.5192982,30.2372881 60.5192982,28.7457627 L60.5192982,26.0338983 C60.5192982,25.0847458 59.9789474,24.1355932 59.1684211,23.7288136 L59.1684211,20.4745763 C59.0333333,9.22033898 49.8473684,0 38.5,0 C27.1526316,0 17.9666667,9.22033898 17.9666667,20.6101695 L17.9666667,23.8644068 C17.1561404,24.2711864 16.6157895,25.220339 16.6157895,26.1694915 L16.6157895,28.8813559 C16.6157895,30.3728814 17.8315789,31.5932203 19.3175439,31.5932203 L19.4526316,31.5932203 L19.4526316,31.7288136 C19.4526316,34.3050847 19.722807,36.7457627 20.3982456,39.0508475 C19.0473684,39.7288136 17.8315789,40.6779661 16.8859649,42.1694915 C14.8596491,45.2881356 15.6701754,48.4067797 17.8315789,51.5254237 L17.4263158,52.7457627 C17.0210526,53.8305085 16.345614,54.6440678 15.2649123,55.0508475 L5.40350877,58.5762712 L5.26842105,58.5762712 C2.02631579,60.3389831 0,63.5932203 0,67.2542373 L0,75.9322034 C0,78.2372881 1.75614035,80 4.05263158,80 L72.9473684,80 C75.2438596,80 77,78.2372881 77,75.9322034 L77,67.2542373 C77,63.5932203 74.9736842,60.3389831 71.7315789,58.7118644 L71.7315789,58.7118644 Z M58.0877193,43.5254237 C58.8982456,44.6101695 59.4385965,46.3728814 57.5473684,49.3559322 C56.6017544,50.9830508 54.9807018,52.6101695 53.2245614,54.3728814 C52.5491228,54.2372881 52.1438596,53.559322 52.1438596,53.0169492 L52.1438596,48.2711864 L52.1438596,48.1355932 C53.6298246,46.2372881 54.9807018,43.9322034 55.9263158,41.4915254 C56.7368421,41.8983051 57.5473684,42.5762712 58.0877193,43.5254237 L58.0877193,43.5254237 Z M50.7929825,55.8644068 C47.0105263,58.1694915 42.822807,59.5254237 38.5,59.5254237 C34.177193,59.5254237 29.9894737,58.3050847 26.2070175,55.8644068 C26.8824561,55.1864407 27.2877193,54.1016949 27.2877193,53.0169492 L27.2877193,50.8474576 C30.3947368,53.559322 34.3122807,55.1864407 38.3649123,55.1864407 C42.5526316,55.1864407 46.3350877,53.559322 49.4421053,50.8474576 L49.4421053,53.0169492 C49.577193,54.1016949 49.9824561,55.0508475 50.7929825,55.8644068 L50.7929825,55.8644068 Z M38.5,52.4745763 C30.8,52.4745763 24.3157895,45.9661017 22.4245614,37.1525424 L22.6947368,37.1525424 C23.6403509,37.1525424 24.4508772,37.559322 25.1263158,38.1016949 C26.2070175,39.1864407 27.8280702,39.8644068 29.3140351,39.8644068 L47.4157895,39.8644068 C49.0368421,39.8644068 50.522807,39.1864407 51.6035088,38.1016949 C52.2789474,37.4237288 53.0894737,37.1525424 54.0350877,37.1525424 L54.3052632,37.1525424 C52.6842105,45.9661017 46.2,52.4745763 38.5,52.4745763 L38.5,52.4745763 Z M30.2596491,31.5932203 C30.2596491,31.5932203 30.2596491,31.7288136 30.2596491,31.5932203 L30.2596491,33.0847458 C30.2596491,33.7627119 30.8,34.440678 31.6105263,34.440678 C32.2859649,34.440678 32.9614035,33.8983051 32.9614035,33.0847458 L32.9614035,31.7288136 C32.9614035,31.7288136 32.9614035,31.7288136 32.9614035,31.5932203 L44.1736842,31.5932203 C44.1736842,31.5932203 44.1736842,31.5932203 44.1736842,31.7288136 L44.1736842,33.0847458 C44.1736842,33.7627119 44.7140351,34.440678 45.5245614,34.440678 C46.3350877,34.440678 46.8754386,33.8983051 46.8754386,33.0847458 L46.8754386,31.7288136 C46.8754386,31.7288136 46.8754386,31.7288136 46.8754386,31.5932203 L55.3859649,31.5932203 L55.3859649,31.7288136 C55.3859649,32.6779661 55.3859649,33.6271186 55.2508772,34.5762712 L54.5754386,34.5762712 C52.954386,34.5762712 51.4684211,35.2542373 50.3877193,36.3389831 C49.7122807,37.0169492 48.9017544,37.2881356 47.9561404,37.2881356 L29.4491228,37.2881356 C28.5035088,37.2881356 27.6929825,36.8813559 27.0175439,36.3389831 C25.9368421,35.2542373 24.3157895,34.5762712 22.8298246,34.5762712 L22.154386,34.5762712 C22.0192982,33.6271186 22.0192982,32.6779661 22.0192982,31.7288136 L22.0192982,31.5932203 L30.2596491,31.5932203 L30.2596491,31.5932203 Z M24.5859649,29.0169492 L24.5859649,26.0338983 L28.9087719,26.0338983 L28.9087719,29.0169492 L24.5859649,29.0169492 L24.5859649,29.0169492 Z M31.4754386,29.0169492 L31.4754386,26.0338983 L37.1491228,26.0338983 L37.1491228,29.0169492 L31.4754386,29.0169492 L31.4754386,29.0169492 Z M39.8508772,29.0169492 L39.8508772,26.0338983 L45.5245614,26.0338983 L45.5245614,29.0169492 L39.8508772,29.0169492 L39.8508772,29.0169492 Z M48.0912281,29.0169492 L48.0912281,26.0338983 L52.4140351,26.0338983 L52.4140351,29.0169492 L48.0912281,29.0169492 L48.0912281,29.0169492 Z M57.8175439,26.1694915 L57.8175439,28.8813559 C57.8175439,28.8813559 57.8175439,29.0169492 57.6824561,29.0169492 L54.845614,29.0169492 L54.845614,26.0338983 L57.8175439,26.1694915 C57.8175439,26.0338983 57.8175439,26.1694915 57.8175439,26.1694915 L57.8175439,26.1694915 Z M56.4666667,20.6101695 L56.4666667,23.4576271 L52.1438596,23.4576271 L52.1438596,20.6101695 C52.1438596,15.1864407 50.7929825,10.0338983 48.3614035,6.23728814 C48.0912281,5.83050847 47.8210526,5.42372881 47.4157895,5.01694915 C52.8192982,8.13559322 56.4666667,13.9661017 56.4666667,20.6101695 L56.4666667,20.6101695 Z M46.2,7.72881356 C48.3614035,11.1186441 49.577193,15.7288136 49.577193,20.7457627 L49.577193,23.5932203 L43.9035088,23.5932203 L43.9035088,20.7457627 C43.9035088,15.4576271 43.4982456,10.5762712 42.6877193,6.77966102 C42.4175439,5.55932203 42.1473684,4.33898305 41.7421053,3.52542373 C43.3631579,4.20338983 44.8491228,5.69491525 46.2,7.72881356 L46.2,7.72881356 Z M35.6631579,20.6101695 C35.6631579,15.8644068 36.0684211,11.3898305 36.7438596,8 C37.4192982,4.47457627 38.2298246,3.11864407 38.5,2.71186441 C38.9052632,3.11864407 39.5807018,4.47457627 40.2561404,8 C40.9315789,11.5254237 41.3368421,16 41.3368421,20.6101695 L41.3368421,23.4576271 L35.6631579,23.4576271 L35.6631579,20.6101695 L35.6631579,20.6101695 Z M35.2578947,3.38983051 C34.9877193,4.33898305 34.5824561,5.42372881 34.3122807,6.6440678 C33.5017544,10.440678 33.0964912,15.3220339 33.0964912,20.6101695 L33.0964912,23.4576271 L27.422807,23.4576271 L27.422807,20.6101695 C27.422807,15.7288136 28.6385965,11.1186441 30.8,7.59322034 C32.1508772,5.69491525 33.6368421,4.20338983 35.2578947,3.38983051 L35.2578947,3.38983051 Z M20.5333333,20.6101695 C20.5333333,13.9661017 24.1807018,8.13559322 29.5842105,5.01694915 C29.3140351,5.42372881 29.0438596,5.83050847 28.6385965,6.23728814 C26.2070175,10.0338983 24.8561404,15.1864407 24.8561404,20.6101695 L24.8561404,23.4576271 L20.5333333,23.4576271 L20.5333333,20.6101695 L20.5333333,20.6101695 Z M19.1824561,29.0169492 L19.1824561,29.0169492 L19.0473684,26.1694915 C19.0473684,26.1694915 19.0473684,26.0338983 19.1824561,26.0338983 L22.0192982,26.0338983 L22.0192982,29.0169492 L19.1824561,29.0169492 L19.1824561,29.0169492 Z M18.9122807,43.5254237 C19.4526316,42.5762712 20.2631579,42.0338983 21.0736842,41.4915254 C22.0192982,43.9322034 23.2350877,46.2372881 24.8561404,48.1355932 L24.8561404,48.2711864 L24.8561404,53.0169492 C24.8561404,53.6949153 24.4508772,54.2372881 23.7754386,54.3728814 C22.0192982,52.6101695 20.5333333,50.8474576 19.4526316,49.3559322 C17.5614035,46.3728814 18.1017544,44.6101695 18.9122807,43.5254237 L18.9122807,43.5254237 Z M16.345614,77.4237288 L16.345614,73.220339 C16.345614,72.5423729 15.8052632,71.8644068 14.9947368,71.8644068 C14.3192982,71.8644068 13.6438596,72.4067797 13.6438596,73.220339 L13.6438596,77.4237288 L4.05263158,77.4237288 C3.24210526,77.4237288 2.56666667,76.7457627 2.56666667,75.9322034 L2.56666667,67.2542373 C2.56666667,64.5423729 4.05263158,62.2372881 6.34912281,61.0169492 L16.0754386,57.220339 C17.6964912,56.5423729 18.9122807,55.3220339 19.5877193,53.8305085 C21.0736842,55.5932203 22.9649123,57.3559322 24.7210526,59.1186441 C30.1245614,64.4067797 36.3385965,70.5084746 37.0140351,77.4237288 L16.345614,77.4237288 L16.345614,77.4237288 Z M29.854386,60.4745763 C32.6912281,61.559322 35.5280702,61.9661017 38.5,61.9661017 C41.4719298,61.9661017 44.3087719,61.4237288 47.145614,60.4745763 C43.6333333,64.1355932 40.2561404,67.9322034 38.5,72.4067797 C36.7438596,67.9322034 33.3666667,64.1355932 29.854386,60.4745763 L29.854386,60.4745763 Z M74.4333333,75.9322034 C74.4333333,76.7457627 73.7578947,77.4237288 72.9473684,77.4237288 L63.2210526,77.4237288 L63.2210526,73.220339 C63.2210526,72.5423729 62.6807018,71.8644068 61.8701754,71.8644068 C61.1947368,71.8644068 60.5192982,72.4067797 60.5192982,73.220339 L60.5192982,77.4237288 L39.8508772,77.4237288 C40.5263158,70.5084746 46.7403509,64.5423729 52.1438596,59.1186441 C54.0350877,57.3559322 55.7912281,55.5932203 57.277193,53.8305085 C57.9526316,55.4576271 59.1684211,56.6779661 60.7894737,57.220339 L70.5157895,61.0169492 C72.8122807,62.2372881 74.2982456,64.5423729 74.2982456,67.2542373 L74.2982456,75.9322034 L74.4333333,75.9322034 Z" id="Shape"></path>
                            </g>
                        </g>
                    </g>
                </g>
            </g>
        </g>
    </g>
</svg>