<?xml version="1.0" encoding="UTF-8"?>
<svg width="47px" height="58px" viewBox="0 0 47 58" version="1.1" xmlns="http://www.w3.org/2000/svg" xmlns:xlink="http://www.w3.org/1999/xlink">
    <!-- Generator: Sketch 40.1 (33804) - http://www.bohemiancoding.com/sketch -->
    <title>Group</title>
    <desc>Created with Sketch.</desc>
    <defs></defs>
    <g id="Page-1" stroke="none" stroke-width="1" fill="none" fill-rule="evenodd">
        <g id="product_ogpo" transform="translate(-795.000000, -856.000000)" fill="#84A4B2">
            <g id="adv_ogpo" transform="translate(0.000000, 670.000000)">
                <g id="7" transform="translate(795.000000, 75.000000)">
                    <g id="Group" transform="translate(0.000000, 111.000000)">
                        <path d="M23.1900005,57.0830782 C23.0419413,57.0830782 22.8920982,57.0634559 22.7476067,57.027779 C12.3317287,54.3662805 0,38.923524 0,28.5415391 L0,6.64839477 C0,5.66371167 0.799163095,4.86454857 1.78384619,4.86454857 C5.11963858,4.86454857 10.0680279,3.50704162 16.3311119,1.78741389 C18.3308035,1.23798926 20.4660674,0.652887707 22.7386874,0.0588669244 C23.0383736,-0.0196223081 23.3523305,-0.0160546158 23.648449,0.0606507706 C25.7373329,0.615426937 27.7138345,1.16306772 29.5779538,1.68038312 C36.0015839,3.45887777 41.0730586,4.86454857 44.5961549,4.86454857 C45.5826218,4.86454857 46.3800011,5.66371167 46.3800011,6.64839477 L46.3800011,28.5415391 C46.3800011,39.3016994 36.197807,54.4162282 23.5539052,57.0456175 C23.4326036,57.0705913 23.3113021,57.0830782 23.1900005,57.0830782 L23.1900005,57.0830782 Z M3.56769239,8.34304865 L3.56769239,28.5415391 C3.56769239,37.3394686 14.3082303,50.8681581 23.2345967,53.4636543 C33.6415554,51.0037304 42.8123087,37.6159647 42.8123087,28.5415391 L42.8123087,8.34661635 C39.0608801,8.00946942 34.3604454,6.70726169 28.6253799,5.11607089 C26.9093199,4.63978395 25.0951483,4.13852317 23.1864328,3.62834316 C21.0975489,4.17776779 19.1263989,4.71827319 17.2765504,5.22666935 C11.7180857,6.75364169 7.15679093,8.00590172 3.56769239,8.34304865 L3.56769239,8.34304865 Z" id="Shape"></path>
                        <path d="M21.4061543,37.4607701 C20.9334351,37.4607701 20.4803382,37.2734662 20.1449751,36.9381032 L13.0095903,29.8027184 C12.3121064,29.1052345 12.3121064,27.9778437 13.0095903,27.2803599 C13.7070742,26.582876 14.834465,26.582876 15.5319488,27.2803599 L21.3187459,33.0671569 L32.5498415,20.2305997 C33.2009454,19.4867358 34.3265523,19.4135981 35.0668485,20.0629182 C35.8089285,20.7122382 35.8838501,21.8378451 35.2363139,22.5799251 L22.7493905,36.8506947 C22.4247305,37.2235185 21.9609305,37.4429316 21.4668051,37.4589862 C21.445399,37.4607701 21.4257766,37.4607701 21.4061543,37.4607701 L21.4061543,37.4607701 Z" id="Shape"></path>
                    </g>
                </g>
            </g>
        </g>
    </g>
</svg>