<svg width="0" height="0" class="hidden">


<svg id="user-group-black" width="48" height="40" viewBox="0 0 48 40" fill="none" xmlns="http://www.w3.org/2000/svg">
<g clip-path="url(#clip0_1479_955)">
<path fill-rule="evenodd" clip-rule="evenodd" d="M45.9166 38.6666C45.9166 38.6666 49 38.6666 49 35.5555C49 32.4444 45.9166 23.1111 33.5833 23.1111C21.25 23.1111 18.1666 32.4444 18.1666 35.5555C18.1666 38.6666 21.25 38.6666 21.25 38.6666H45.9166ZM21.3178 35.5555H45.8488C45.8632 35.5538 45.8776 35.5518 45.892 35.5493L45.9166 35.5431C45.9105 34.7218 45.4017 32.3386 43.5733 30.192C41.8713 28.1791 38.8805 26.2222 33.5833 26.2222C28.2892 26.2222 25.2984 28.1822 23.5933 30.192C21.7649 32.3386 21.253 34.7249 21.25 35.5431C21.2725 35.5475 21.2951 35.5516 21.3178 35.5555ZM33.5833 16.8889C35.2188 16.8889 36.7873 16.2333 37.9438 15.0664C39.1003 13.8995 39.75 12.3169 39.75 10.6666C39.75 9.01641 39.1003 7.43376 37.9438 6.26687C36.7873 5.09998 35.2188 4.44442 33.5833 4.44442C31.9478 4.44442 30.3793 5.09998 29.2228 6.26687C28.0663 7.43376 27.4166 9.01641 27.4166 10.6666C27.4166 12.3169 28.0663 13.8995 29.2228 15.0664C30.3793 16.2333 31.9478 16.8889 33.5833 16.8889ZM42.8333 10.6666C42.8333 11.8923 42.594 13.106 42.1292 14.2384C41.6643 15.3707 40.983 16.3996 40.124 17.2663C39.2651 18.133 38.2454 18.8205 37.1231 19.2895C36.0009 19.7586 34.798 20 33.5833 20C32.3686 20 31.1657 19.7586 30.0435 19.2895C28.9212 18.8205 27.9015 18.133 27.0426 17.2663C26.1836 16.3996 25.5023 15.3707 25.0374 14.2384C24.5725 13.106 24.3333 11.8923 24.3333 10.6666C24.3333 8.19129 25.3078 5.81732 27.0426 4.06698C28.7773 2.31664 31.13 1.33331 33.5833 1.33331C36.0365 1.33331 38.3893 2.31664 40.124 4.06698C41.8587 5.81732 42.8333 8.19129 42.8333 10.6666ZM21.0526 23.9822C19.8192 23.5903 18.5478 23.3327 17.2601 23.2138C16.5366 23.1443 15.8101 23.1101 15.0833 23.1111C2.74996 23.1111 -0.333374 32.4444 -0.333374 35.5555C-0.333374 37.6306 0.693376 38.6666 2.74996 38.6666H15.7493C15.2922 37.6954 15.0642 36.6305 15.0833 35.5555C15.0833 32.4133 16.2457 29.2026 18.4441 26.5209C19.1934 25.6062 20.066 24.7506 21.0526 23.9822ZM14.8366 26.2222C9.69363 26.2844 6.77371 28.2133 5.09329 30.192C3.25254 32.3511 2.74996 34.7435 2.74996 35.5555H12C12 32.3044 12.9959 29.0658 14.8366 26.2222ZM4.29163 12.2222C4.29163 9.74685 5.26618 7.37288 7.00089 5.62254C8.7356 3.8722 11.0884 2.88887 13.5416 2.88887C15.9949 2.88887 18.3477 3.8722 20.0824 5.62254C21.8171 7.37288 22.7916 9.74685 22.7916 12.2222C22.7916 14.6976 21.8171 17.0715 20.0824 18.8219C18.3477 20.5722 15.9949 21.5555 13.5416 21.5555C11.0884 21.5555 8.7356 20.5722 7.00089 18.8219C5.26618 17.0715 4.29163 14.6976 4.29163 12.2222ZM13.5416 5.99998C11.9061 5.99998 10.3376 6.65553 9.18113 7.82243C8.02466 8.98932 7.37496 10.572 7.37496 12.2222C7.37496 13.8724 8.02466 15.4551 9.18113 16.622C10.3376 17.7889 11.9061 18.4444 13.5416 18.4444C15.1771 18.4444 16.7456 17.7889 17.9021 16.622C19.0586 15.4551 19.7083 13.8724 19.7083 12.2222C19.7083 10.572 19.0586 8.98932 17.9021 7.82243C16.7456 6.65553 15.1771 5.99998 13.5416 5.99998Z" fill="white"/>
</g>
<defs>
<clipPath id="clip0_1479_955">
<rect width="48" height="39.5295" fill="white"/>
</clipPath>
</defs>
</svg>

<svg id="user-group-blue" width="48" height="40" viewBox="0 0 48 40" fill="none" xmlns="http://www.w3.org/2000/svg">
<g clip-path="url(#clip0_1479_943)">
<path fill-rule="evenodd" clip-rule="evenodd" d="M45.9167 38.6666C45.9167 38.6666 49 38.6666 49 35.5555C49 32.4444 45.9167 23.1111 33.5834 23.1111C21.25 23.1111 18.1667 32.4444 18.1667 35.5555C18.1667 38.6666 21.25 38.6666 21.25 38.6666H45.9167ZM21.3179 35.5555H45.8489C45.8633 35.5538 45.8777 35.5518 45.892 35.5493L45.9167 35.5431C45.9105 34.7218 45.4018 32.3386 43.5734 30.192C41.8714 28.1791 38.8805 26.2222 33.5834 26.2222C28.2893 26.2222 25.2984 28.1822 23.5934 30.192C21.7649 32.3386 21.2531 34.7249 21.25 35.5431C21.2726 35.5475 21.2952 35.5516 21.3179 35.5555ZM33.5834 16.8889C35.2189 16.8889 36.7874 16.2333 37.9438 15.0664C39.1003 13.8995 39.75 12.3169 39.75 10.6666C39.75 9.01641 39.1003 7.43376 37.9438 6.26687C36.7874 5.09998 35.2189 4.44442 33.5834 4.44442C31.9478 4.44442 30.3793 5.09998 29.2229 6.26687C28.0664 7.43376 27.4167 9.01641 27.4167 10.6666C27.4167 12.3169 28.0664 13.8995 29.2229 15.0664C30.3793 16.2333 31.9478 16.8889 33.5834 16.8889ZM42.8334 10.6666C42.8334 11.8923 42.5941 13.106 42.1292 14.2384C41.6644 15.3707 40.983 16.3996 40.1241 17.2663C39.2651 18.133 38.2454 18.8205 37.1232 19.2895C36.0009 19.7586 34.7981 20 33.5834 20C32.3686 20 31.1658 19.7586 30.0435 19.2895C28.9213 18.8205 27.9016 18.133 27.0426 17.2663C26.1837 16.3996 25.5023 15.3707 25.0375 14.2384C24.5726 13.106 24.3334 11.8923 24.3334 10.6666C24.3334 8.19129 25.3079 5.81732 27.0426 4.06698C28.7773 2.31664 31.1301 1.33331 33.5834 1.33331C36.0366 1.33331 38.3894 2.31664 40.1241 4.06698C41.8588 5.81732 42.8334 8.19129 42.8334 10.6666ZM21.0527 23.9822C19.8193 23.5903 18.5479 23.3327 17.2602 23.2138C16.5366 23.1443 15.8102 23.1101 15.0834 23.1111C2.75002 23.1111 -0.333313 32.4444 -0.333313 35.5555C-0.333313 37.6306 0.693437 38.6666 2.75002 38.6666H15.7494C15.2923 37.6954 15.0643 36.6305 15.0834 35.5555C15.0834 32.4133 16.2458 29.2026 18.4442 26.5209C19.1934 25.6062 20.066 24.7506 21.0527 23.9822ZM14.8367 26.2222C9.69369 26.2844 6.77377 28.2133 5.09335 30.192C3.2526 32.3511 2.75002 34.7435 2.75002 35.5555H12C12 32.3044 12.9959 29.0658 14.8367 26.2222ZM4.29169 12.2222C4.29169 9.74685 5.26624 7.37288 7.00095 5.62254C8.73566 3.8722 11.0884 2.88887 13.5417 2.88887C15.9949 2.88887 18.3477 3.8722 20.0824 5.62254C21.8171 7.37288 22.7917 9.74685 22.7917 12.2222C22.7917 14.6976 21.8171 17.0715 20.0824 18.8219C18.3477 20.5722 15.9949 21.5555 13.5417 21.5555C11.0884 21.5555 8.73566 20.5722 7.00095 18.8219C5.26624 17.0715 4.29169 14.6976 4.29169 12.2222ZM13.5417 5.99998C11.9062 5.99998 10.3377 6.65553 9.18119 7.82243C8.02472 8.98932 7.37502 10.572 7.37502 12.2222C7.37502 13.8724 8.02472 15.4551 9.18119 16.622C10.3377 17.7889 11.9062 18.4444 13.5417 18.4444C15.1772 18.4444 16.7457 17.7889 17.9022 16.622C19.0587 15.4551 19.7084 13.8724 19.7084 12.2222C19.7084 10.572 19.0587 8.98932 17.9022 7.82243C16.7457 6.65553 15.1772 5.99998 13.5417 5.99998Z" fill="#23A6F0"/>
</g>
<defs>
<clipPath id="clip0_1479_943">
<rect width="48" height="39.5295" fill="white"/>
</clipPath>
</defs>
</svg>

    <svg id="arrow" width="12" height="10" viewBox="0 0 12 10" fill="none" xmlns="http://www.w3.org/2000/svg">
        <path fill-rule="evenodd" clip-rule="evenodd" d="M0 5C0 4.81059 0.079009 4.62895 0.219646 4.49502C0.360282 4.36108 0.551026 4.28584 0.749916 4.28584H9.43845L6.21831 1.22068C6.07749 1.08658 5.99838 0.904705 5.99838 0.715059C5.99838 0.525414 6.07749 0.343536 6.21831 0.209436C6.35912 0.0753365 6.5501 0 6.74925 0C6.94839 0 7.13937 0.0753365 7.28019 0.209436L11.7797 4.49438C11.8495 4.56072 11.9049 4.63952 11.9427 4.72629C11.9805 4.81305 12 4.90606 12 5C12 5.09394 11.9805 5.18695 11.9427 5.27371C11.9049 5.36048 11.8495 5.43928 11.7797 5.50562L7.28019 9.79056C7.13937 9.92466 6.94839 10 6.74925 10C6.5501 10 6.35912 9.92466 6.21831 9.79056C6.07749 9.65646 5.99838 9.47459 5.99838 9.28494C5.99838 9.0953 6.07749 8.91342 6.21831 8.77932L9.43845 5.71416H0.749916C0.551026 5.71416 0.360282 5.63892 0.219646 5.50499C0.079009 5.37106 0 5.18941 0 5Z" fill="white"/>
    </svg>

    <svg id="peace" width="72" height="60" viewBox="0 0 72 60" fill="none" xmlns="http://www.w3.org/2000/svg">
        <g clip-path="url(#clip0_1479_526)">
            <path fill-rule="evenodd" clip-rule="evenodd" d="M0 9.42857C0 7.19318 0.895533 5.04934 2.48959 3.46867C4.08365 1.88801 6.24566 1 8.5 1H65.875C66.4386 1 66.9791 1.222 67.3776 1.61717C67.7761 2.01233 68 2.54829 68 3.10714C68 3.66599 67.7761 4.20195 67.3776 4.59712C66.9791 4.99228 66.4386 5.21429 65.875 5.21429H63.75V13.6429C64.8772 13.6429 65.9582 14.0869 66.7552 14.8772C67.5522 15.6675 68 16.7394 68 17.8571V53.6786C68 55.3551 67.3284 56.963 66.1328 58.1485C64.9373 59.334 63.3158 60 61.625 60H10.625C7.80707 60 5.10456 58.89 3.11199 56.9142C1.11942 54.9383 0 52.2585 0 49.4643L0 9.42857ZM4.25 16.7277V49.4643C4.25 51.1408 4.92165 52.7487 6.11719 53.9342C7.31274 55.1197 8.93425 55.7857 10.625 55.7857H61.625C62.1886 55.7857 62.7291 55.5637 63.1276 55.1685C63.5261 54.7734 63.75 54.2374 63.75 53.6786V17.8571H8.5C7.00765 17.8591 5.54137 17.4694 4.25 16.7277ZM4.25 9.42857C4.25 10.5463 4.69777 11.6182 5.4948 12.4085C6.29183 13.1989 7.37283 13.6429 8.5 13.6429H59.5V5.21429H8.5C7.37283 5.21429 6.29183 5.65829 5.4948 6.44862C4.69777 7.23895 4.25 8.31087 4.25 9.42857Z" fill="#23A6F0"/>
        </g>
        <defs>
            <clipPath id="clip0_1479_526">
                <rect width="72" height="59.2942" fill="white"/>
            </clipPath>
        </defs>
    </svg>

    <svg id="set" width="73" height="60" viewBox="0 0 73 60" fill="none" xmlns="http://www.w3.org/2000/svg">
        <path fill-rule="evenodd" clip-rule="evenodd" d="M15 14.4287C15 12.4585 15.7796 10.569 17.1674 9.17582C18.5552 7.78266 20.4374 7 22.4 7H44.6C46.5626 7 48.4448 7.78266 49.8326 9.17582C51.2204 10.569 52 12.4585 52 14.4287V57.1438C51.9998 57.4797 51.9089 57.8093 51.7369 58.0975C51.5649 58.3856 51.3182 58.6215 51.0232 58.7801C50.7282 58.9387 50.3959 59.0139 50.0616 58.9979C49.7273 58.9818 49.4037 58.8751 49.1251 58.689L33.5 48.233L17.8749 58.689C17.5963 58.8751 17.2727 58.9818 16.9384 58.9979C16.6041 59.0139 16.2718 58.9387 15.9768 58.7801C15.6818 58.6215 15.4351 58.3856 15.2631 58.0975C15.0911 57.8093 15.0002 57.4797 15 57.1438V14.4287ZM22.4 10.7144C21.4187 10.7144 20.4776 11.1057 19.7837 11.8023C19.0898 12.4988 18.7 13.4436 18.7 14.4287V53.6746L32.4751 44.4555C32.7787 44.2527 33.1353 44.1445 33.5 44.1445C33.8647 44.1445 34.2213 44.2527 34.5249 44.4555L48.3 53.6746V14.4287C48.3 13.4436 47.9102 12.4988 47.2163 11.8023C46.5224 11.1057 45.5813 10.7144 44.6 10.7144H22.4Z" fill="#23A6F0"/>
        <path fill-rule="evenodd" clip-rule="evenodd" d="M23 3.64292H51.6017C52.5828 3.64292 53.5237 4.02673 54.2174 4.70991C54.9111 5.39309 55.3009 6.31968 55.3009 7.28585V50.1558L56.1258 50.6949C56.4043 50.8775 56.7279 50.9822 57.0621 50.9979C57.3962 51.0137 57.7285 50.9398 58.0234 50.7843C58.3184 50.6288 58.565 50.3974 58.7369 50.1148C58.9089 49.8322 58.9998 49.509 59 49.1795V7.28585C59 5.35352 58.2205 3.50034 56.8331 2.13398C55.4456 0.767614 53.5639 0 51.6017 0L29.4069 0C28.1083 3.24892e-05 26.8325 0.3367 25.7079 0.976165C24.5832 1.61563 23.6493 2.53536 23 3.64292Z" fill="#23A6F0"/>
    </svg>

    <svg id="users" width="73" height="60" viewBox="0 0 73 60" fill="none" xmlns="http://www.w3.org/2000/svg">
        <g clip-path="url(#clip0_1479_541)">
            <path fill-rule="evenodd" clip-rule="evenodd" d="M69.375 58C69.375 58 74 58 74 53.3333C74 48.6667 69.375 34.6667 50.875 34.6667C32.375 34.6667 27.75 48.6667 27.75 53.3333C27.75 58 32.375 58 32.375 58H69.375ZM32.4767 53.3333H69.2732C69.2949 53.3308 69.3165 53.3277 69.338 53.324L69.375 53.3147C69.3658 52.0827 68.6026 48.508 65.86 45.288C63.307 42.2687 58.8208 39.3333 50.875 39.3333C42.9339 39.3333 38.4476 42.2733 35.89 45.288C33.1474 48.508 32.3796 52.0873 32.375 53.3147C32.4089 53.3213 32.4428 53.3275 32.4767 53.3333ZM50.875 25.3333C53.3283 25.3333 55.681 24.35 57.4157 22.5997C59.1504 20.8493 60.125 18.4754 60.125 16C60.125 13.5246 59.1504 11.1507 57.4157 9.40034C55.681 7.65 53.3283 6.66667 50.875 6.66667C48.4217 6.66667 46.069 7.65 44.3343 9.40034C42.5996 11.1507 41.625 13.5246 41.625 16C41.625 18.4754 42.5996 20.8493 44.3343 22.5997C46.069 24.35 48.4217 25.3333 50.875 25.3333ZM64.75 16C64.75 17.8385 64.3911 19.659 63.6938 21.3576C62.9965 23.0561 61.9745 24.5995 60.6861 25.8995C59.3977 27.1995 57.8681 28.2307 56.1847 28.9343C54.5013 29.6379 52.6971 30 50.875 30C49.0529 30 47.2487 29.6379 45.5653 28.9343C43.8819 28.2307 42.3523 27.1995 41.0639 25.8995C39.7755 24.5995 38.7535 23.0561 38.0562 21.3576C37.3589 19.659 37 17.8385 37 16C37 12.287 38.4618 8.72601 41.0639 6.10051C43.666 3.475 47.1951 2 50.875 2C54.5549 2 58.084 3.475 60.6861 6.10051C63.2882 8.72601 64.75 12.287 64.75 16ZM32.079 35.9733C30.2289 35.3855 28.3218 34.9991 26.3902 34.8207C25.3049 34.7165 24.2152 34.6651 23.125 34.6667C4.625 34.6667 0 48.6667 0 53.3333C0 56.446 1.54013 58 4.625 58H24.124C23.4384 56.5431 23.0964 54.9459 23.125 53.3333C23.125 48.62 24.8686 43.804 28.1663 39.7813C29.2901 38.4093 30.599 37.126 32.079 35.9733ZM22.755 39.3333C15.0405 39.4267 10.6606 42.32 8.14 45.288C5.37887 48.5267 4.625 52.1153 4.625 53.3333H18.5C18.5 48.4567 19.9939 43.5987 22.755 39.3333ZM6.9375 18.3333C6.9375 14.6203 8.39933 11.0593 11.0014 8.43384C13.6035 5.80833 17.1326 4.33333 20.8125 4.33333C24.4924 4.33333 28.0215 5.80833 30.6236 8.43384C33.2257 11.0593 34.6875 14.6203 34.6875 18.3333C34.6875 22.0464 33.2257 25.6073 30.6236 28.2328C28.0215 30.8583 24.4924 32.3333 20.8125 32.3333C17.1326 32.3333 13.6035 30.8583 11.0014 28.2328C8.39933 25.6073 6.9375 22.0464 6.9375 18.3333ZM20.8125 9C18.3592 9 16.0065 9.98333 14.2718 11.7337C12.5371 13.484 11.5625 15.858 11.5625 18.3333C11.5625 20.8087 12.5371 23.1827 14.2718 24.933C16.0065 26.6833 18.3592 27.6667 20.8125 27.6667C23.2658 27.6667 25.6185 26.6833 27.3532 24.933C29.0879 23.1827 30.0625 20.8087 30.0625 18.3333C30.0625 15.858 29.0879 13.484 27.3532 11.7337C25.6185 9.98333 23.2658 9 20.8125 9Z" fill="#23A6F0"/>
        </g>
        <defs>
            <clipPath id="clip0_1479_541">
                <rect width="72" height="59.2942" fill="white" transform="translate(0.5)"/>
            </clipPath>
        </defs>
    </svg>

    <svg id="aws" width="105" height="63" viewBox="0 0 105 63" fill="none" xmlns="http://www.w3.org/2000/svg">
        <g clip-path="url(#clip0_1479_626)">
            <path d="M29.8871 22.9887C29.7705 26.6268 31.6043 28.2378 31.6496 29.261C31.628 29.4692 31.5565 29.6693 31.4409 29.8445C31.3254 30.0197 31.1692 30.165 30.9854 30.2681L28.9119 31.7072C28.6436 31.8938 28.3273 32.0007 27.9999 32.0156C27.9302 32.0124 26.6732 32.3096 24.6823 27.9021C23.4676 29.4055 21.9221 30.6133 20.1642 31.4332C18.4062 32.2531 16.4823 32.6633 14.5398 32.6324C11.9026 32.7754 4.75541 31.1483 5.12313 23.6039C4.86556 17.4553 10.6406 13.6357 16.6134 13.9585C17.7635 13.9618 20.1124 14.018 24.2254 14.9656V12.4567C24.6612 8.20668 21.8441 4.90911 16.9665 5.40383C16.5777 5.40543 13.8238 5.32352 9.5407 7.02771C8.34843 7.57061 8.19616 7.48067 7.79927 7.48067C6.5989 7.48067 7.09298 4.03051 7.32301 3.59362C8.167 2.56564 13.1321 0.646211 18.0049 0.673517C21.263 0.387814 24.5036 1.38483 27.0263 3.44906C28.0518 4.5864 28.8341 5.91801 29.3261 7.3635C29.8181 8.80898 30.0095 10.3383 29.8887 11.8592L29.8871 22.9887ZM15.8876 28.1912C21.1411 28.1157 23.3653 24.9836 23.8723 23.2971C24.2708 21.6828 24.2044 20.6613 24.2044 18.8961C22.6379 18.5234 20.3829 18.117 17.7959 18.1138C15.3417 17.9307 10.8593 19.0181 11.0343 23.2955C10.8334 25.9923 12.8357 28.339 15.8876 28.1912ZM43.5756 31.8936C42.3023 32.0092 41.7094 31.1129 41.5215 30.2279L33.4542 3.78155C33.2971 3.33502 33.1934 2.87403 33.1432 2.40341C33.1134 2.20939 33.1626 2.01158 33.2798 1.85346C33.3971 1.69535 33.5728 1.58985 33.7685 1.56015C33.8074 1.55372 33.4234 1.56015 37.3729 1.56015C38.7952 1.4188 39.2585 2.5287 39.4059 3.2258L45.1923 25.8462L50.564 3.2258C50.6499 2.70859 51.0403 1.44771 52.6375 1.58103H55.4173C55.7689 1.55212 57.2171 1.50072 57.4714 3.24668L62.8852 26.1562L68.858 3.24668C68.9357 2.89652 69.2986 1.42041 70.912 1.58103H74.1066C74.2442 1.56015 75.1028 1.45093 74.957 2.95916C74.8874 3.25631 75.5094 1.24694 66.4118 30.2488C66.2256 31.1338 65.631 32.0301 64.3578 31.9144H61.3301C59.5579 32.0992 59.3036 30.3628 59.276 30.1878L53.9043 8.1617L48.5942 30.1653C48.5682 30.3404 48.3139 32.0767 46.5401 31.892H43.5756V31.8936ZM87.8776 32.7979C86.9251 32.7995 82.3828 32.7497 78.5857 30.8238C78.2074 30.665 77.8853 30.3984 77.66 30.0579C77.4348 29.7173 77.3166 29.3181 77.3205 28.9108V27.1841C77.3205 25.8269 78.3249 26.0758 78.7509 26.2381C80.3773 26.8902 81.4206 27.3849 83.418 27.78C89.355 28.9895 91.9664 27.4106 92.6062 27.0605C94.7365 25.806 94.9049 22.9357 93.4567 21.4467C91.759 20.0349 90.9491 19.9819 84.85 18.0737C84.0983 17.8665 77.7709 15.8876 77.7563 9.66352C77.6575 5.12756 81.8142 0.639785 89.0181 0.676728C91.0705 0.675122 96.5395 1.3401 98.0201 3.18564C98.2388 3.52134 98.3473 3.91647 98.3311 4.31642V5.9403C98.3311 6.65346 98.0687 7.01004 97.5422 7.01004C96.2932 6.87191 94.0771 5.2159 89.5786 5.28336C88.4624 5.22554 83.1166 5.42953 83.3564 9.29409C83.2867 12.3395 87.6671 13.4815 88.1676 13.6132C94.0739 15.3752 96.0486 15.6676 98.3927 18.3644C101.169 21.9382 99.6724 26.1224 99.0973 27.2693C96.0065 33.291 88.0137 32.8011 87.8776 32.7979ZM94.3898 49.6407C83.0454 57.948 66.5771 62.3699 52.516 62.3699C33.5434 62.494 15.2102 55.5768 1.12027 42.9781C0.0624497 42.032 0.995534 40.7358 2.28176 41.457C17.9117 50.322 35.608 54.9799 53.6143 54.9685C67.061 54.897 80.361 52.1923 92.7504 47.0097C94.6587 46.2066 96.277 48.2625 94.3898 49.6407ZM99.1184 44.2936C97.6669 42.4432 89.5154 43.4294 85.8657 43.8615C84.7657 43.9852 84.5795 43.0391 85.5757 42.3404C92.0668 37.8157 102.728 39.1119 103.952 40.633C105.175 42.1541 103.62 52.7455 97.5438 57.8051C96.6107 58.5873 95.7181 58.1745 96.1328 57.1465C97.5001 53.7333 100.57 46.1455 99.1184 44.2936Z" fill="#737373"/>
        </g>
        <defs>
            <clipPath id="clip0_1479_626">
                <rect width="104" height="62" fill="white" transform="translate(0.5 0.5)"/>
            </clipPath>
        </defs>
    </svg>

    <svg id="hooli" width="103" height="35" viewBox="0 0 103 35" fill="none" xmlns="http://www.w3.org/2000/svg">
        <g clip-path="url(#clip0_1479_614)">
            <path d="M23.2554 32.4249L29.4193 32.5526C27.2949 31.8183 25.2349 30.9244 23.2554 29.8709V32.4249ZM32.5415 31.5789V32.4249L29.4193 32.5526C35.2935 34.5479 40.6688 34.8193 44.6601 33.7019C41.4574 33.7338 37.2892 33.2869 32.5415 31.5789ZM98.3488 13.1901C100.908 13.1901 103 11.131 103 8.577C103 6.02301 100.924 4.6662 98.3488 4.6662C95.7899 4.6662 93.6977 6.03897 93.6977 8.577C93.6977 11.115 95.7738 13.1901 98.3488 13.1901ZM93.6816 32.4249H103V14.7864H93.6816V32.4249ZM81.8206 32.4249H91.1388V1.25024L81.8206 5.60799V32.4249ZM76.8315 13.3657C73.9024 10.4606 68.7202 10.6362 68.7202 10.6362C68.7202 10.6362 63.522 10.4606 60.609 13.3657C57.6799 16.2709 57.9052 18.777 57.9052 21.762C57.9052 24.747 57.6799 27.2371 60.609 30.1423C63.5381 33.0474 68.7202 32.8718 68.7202 32.8718C68.7202 32.8718 73.9185 33.0474 76.8315 30.1423C79.7606 27.2371 79.5352 24.747 79.5352 21.762C79.5192 18.761 79.7445 16.2549 76.8315 13.3657ZM70.4262 24.8427C70.4262 25.4174 70.1365 26.838 68.7042 26.838C67.2718 26.838 66.9821 25.4174 66.9821 24.8427V18.3939C66.9821 17.0052 68.157 16.654 68.7042 16.654C69.2513 16.654 70.4262 16.9892 70.4262 18.3939V24.8427ZM53.3346 13.3657C50.4056 10.4606 45.2234 10.6362 45.2234 10.6362C45.2234 10.6362 40.0412 10.4606 37.1121 13.3657C36.8063 13.669 36.5167 13.9883 36.2592 14.3235C30.1113 9.5986 24.5912 6.90094 19.8274 4.57043V1.2662L16.2063 2.95822C7.45135 -0.569481 1.88291 0.0530559 0.547129 2.97418C0.547129 2.97418 -3.46021 8.20986 10.4931 20.6606V32.4249H19.8113V27.8596C18.7653 27.1892 17.7192 26.4709 16.6892 25.6887C14.3073 23.9009 12.2795 22.2409 10.5092 20.6765V15.7282C12.6174 18.0747 15.4178 20.7404 19.1032 23.7573L19.8274 24.3319V19.5751C19.8274 18.4737 20.101 16.67 21.5656 16.67C23.0301 16.67 23.2715 17.7714 23.2715 19.0643V26.838C26.1684 28.7855 29.2745 30.3657 32.5576 31.5629V16.5742C32.5576 13.5892 30.401 10.6042 26.0235 10.6042C23.4807 10.5883 21.1149 11.9132 19.8274 14.1V5.4324C26.5707 8.76855 33.3301 12.8549 35.9051 14.7385C34.2635 17.069 34.4084 19.2239 34.4084 21.7141C34.4084 24.6991 34.1831 27.1892 37.1121 30.0944C40.0412 32.9995 45.2234 32.824 45.2234 32.824C45.2234 32.824 50.4217 32.9995 53.3346 30.0944C56.2637 27.1892 56.0223 24.6991 56.0223 21.7141C56.0223 18.761 56.2637 16.2549 53.3346 13.3657ZM10.4931 5.60799V15.7122C2.65541 7.01268 4.2326 3.58076 4.82807 3.08592C7.00072 1.2662 10.8632 1.80892 15.1924 3.42113L10.4931 5.60799ZM46.9454 24.8427C46.9454 25.4174 46.6557 26.838 45.2234 26.838C43.791 26.838 43.5013 25.4174 43.5013 24.8427V18.3939C43.5013 17.0052 44.6762 16.654 45.2234 16.654C45.7706 16.654 46.9454 16.9892 46.9454 18.3939V24.8427Z" fill="#737373"/>
        </g>
        <defs>
            <clipPath id="clip0_1479_614">
                <rect width="103" height="34" fill="white" transform="translate(0 0.5)"/>
            </clipPath>
        </defs>
    </svg>

    <svg id="lyft" width="92" height="59" viewBox="0 0 92 59" fill="none" xmlns="http://www.w3.org/2000/svg">
        <g clip-path="url(#clip0_1479_617)" filter="url(#filter0_d_1479_617)">
            <path d="M4.5 0.995234H17.1121V35.0099C17.1121 40.4046 19.5437 43.6154 21.5215 44.9519C19.4627 46.761 13.2215 48.3582 8.52031 44.4955C5.76445 42.2137 4.5 38.4162 4.5 34.8795V0.995234ZM83.2689 29.2729V25.6872H87.1272V13.1701H82.8961C81.2588 5.62396 74.5961 0.017334 66.6365 0.017334C57.4611 0.017334 49.9879 7.51457 49.9879 16.7557V45.9624C52.5816 46.3372 55.7266 45.9135 58.3689 43.6806C61.141 41.3988 62.3893 37.6176 62.3893 34.0646V32.9726H68.6791V20.4555H62.3893V16.6579C62.3893 11.0187 70.8514 11.0187 70.8514 16.6579V29.224C70.8514 38.4488 78.3084 45.9624 87.5 45.9624V33.4941C85.1494 33.4941 83.2689 31.5872 83.2689 29.2729ZM35.5602 13.1375V31.5546C35.5602 34.0646 31.702 34.0646 31.702 31.5546V13.1375H19.252V34.7654C19.252 38.6444 20.5488 43.5665 26.5469 45.18C32.5449 46.7773 35.9816 43.4524 35.9816 43.4524C35.6412 45.6364 33.6311 47.2499 30.324 47.5759C27.8113 47.8367 24.6178 46.9892 23.0291 46.3046V57.7624C27.098 58.9847 31.3777 59.3596 35.6088 58.5284C43.2441 57.0452 48.0588 50.64 48.0588 42.0996V13.056H35.5602V13.1375Z" fill="#737373"/>
        </g>
        <defs>
            <filter id="filter0_d_1479_617" x="0.5" y="0" width="91" height="67" filterUnits="userSpaceOnUse" color-interpolation-filters="sRGB">
                <feFlood flood-opacity="0" result="BackgroundImageFix"/>
                <feColorMatrix in="SourceAlpha" type="matrix" values="0 0 0 0 0 0 0 0 0 0 0 0 0 0 0 0 0 0 127 0" result="hardAlpha"/>
                <feOffset dy="4"/>
                <feGaussianBlur stdDeviation="2"/>
                <feComposite in2="hardAlpha" operator="out"/>
                <feColorMatrix type="matrix" values="0 0 0 0 0 0 0 0 0 0 0 0 0 0 0 0 0 0 0.25 0"/>
                <feBlend mode="normal" in2="BackgroundImageFix" result="effect1_dropShadow_1479_617"/>
                <feBlend mode="normal" in="SourceGraphic" in2="effect1_dropShadow_1479_617" result="shape"/>
            </filter>
            <clipPath id="clip0_1479_617">
                <rect width="83" height="59" fill="white" transform="translate(4.5)"/>
            </clipPath>
        </defs>
    </svg>

    <svg id="piperHat" width="102" height="75" viewBox="0 0 102 75" fill="none" xmlns="http://www.w3.org/2000/svg">
        <path d="M102 0.145752C89.1225 8.82826 87.7519 15.1296 86.6362 17.0572C85.5684 19.0334 84.7716 26.825 82.9228 30.5993C81.0581 34.4222 74.2847 37.4352 72.3881 38.6987C70.5234 39.9622 67.8778 44.8704 65.7103 49.0982C48.4819 48.3855 39.0309 55.3833 24.4003 64.2602C29.0859 62.6889 31.3012 61.555 31.3012 61.555C46.3144 55.7235 53.5022 50.4913 76.1016 53.5853C76.2769 53.5853 76.4044 53.6825 76.5478 53.7149C77.1694 54.0712 77.3925 54.8326 77.0419 55.4643L68.4516 70.9827C68.0531 71.744 67.2084 72.149 66.3637 71.9708C46.155 68.1155 30.2016 74.7732 15.5391 74.9838C3.84094 75.1619 0 69.5572 0 69.298C0 69.1198 0.095625 69.0226 0.270938 69.0226C0.270938 69.0226 6.375 69.0226 16.7025 66.5442C28.4325 43.8175 38.8875 35.8639 50.2669 35.8639C50.2669 35.8639 61.6941 35.8639 64.7062 45.8909C68.34 39.46 69.2166 37.9211 69.2166 37.9211C70.0612 36.3985 74.7947 25.4157 82.9866 15.0162C91.1944 4.64899 97.3941 2.0734 102 0.145752Z" fill="#737373"/>
    </svg>

    <svg id="reddit" width="77" height="73" viewBox="0 0 77 73" fill="none" xmlns="http://www.w3.org/2000/svg">
        <g clip-path="url(#clip0_1479_629)">
            <path d="M67.9261 28.1614C65.5311 28.1614 63.4236 29.1556 61.8748 30.7111C56.1748 26.7503 48.495 24.2006 39.9849 23.928L44.4076 3.91556L58.49 7.09061C58.49 10.5543 61.3 13.3766 64.7488 13.3766C68.2614 13.3766 71.0874 10.4741 71.0874 7.01043C71.0874 3.54674 68.2773 0.644287 64.7488 0.644287C62.29 0.644287 60.1664 2.1356 59.1126 4.17213L43.5614 0.70843C42.779 0.499966 42.0126 1.06121 41.8051 1.84696L36.9513 23.912C28.5051 24.2648 20.9051 26.8144 15.1891 30.7752C13.6404 29.1556 11.453 28.1614 9.05802 28.1614C0.180712 28.1614 -2.72517 40.124 5.40172 44.2131C5.11433 45.4799 4.98659 46.8269 4.98659 48.1739C4.98659 61.6118 20.0589 72.5 38.5639 72.5C57.1488 72.5 72.221 61.6118 72.221 48.1739C72.221 46.8269 72.0773 45.4158 71.7261 44.149C79.6933 40.0438 76.7555 28.1614 67.9261 28.1614ZM18.2866 45.063C18.2866 41.5351 21.0967 38.6968 24.6252 38.6968C28.074 38.6968 30.8841 41.5191 30.8841 45.063C30.8841 48.5267 28.074 51.349 24.6252 51.349C21.1126 51.365 18.2866 48.5267 18.2866 45.063ZM52.5026 60.0563C46.6908 65.8933 30.2933 65.8933 24.4816 60.0563C23.8429 59.4951 23.8429 58.5008 24.4816 57.8594C25.0404 57.2982 26.0303 57.2982 26.5891 57.8594C31.0278 62.4296 45.7488 62.5098 50.379 57.8594C50.9379 57.2982 51.9278 57.2982 52.4866 57.8594C53.1412 58.5008 53.1412 59.4951 52.5026 60.0563ZM52.3748 51.365C48.9261 51.365 46.116 48.5427 46.116 45.079C46.116 41.5512 48.9261 38.7129 52.3748 38.7129C55.8874 38.7129 58.7135 41.5351 58.7135 45.079C58.6975 48.5267 55.8874 51.365 52.3748 51.365Z" fill="#737373"/>
        </g>
        <defs>
            <clipPath id="clip0_1479_629">
                <rect width="76" height="72" fill="white" transform="translate(0.5 0.5)"/>
            </clipPath>
        </defs>
    </svg>

    <svg id="stripe" width="103" height="43" viewBox="0 0 103 43" fill="none" xmlns="http://www.w3.org/2000/svg">
        <g clip-path="url(#clip0_1479_623)">
            <path d="M26.5554 3.79318L19.5868 5.25682L19.5547 27.9114C19.5547 32.0955 22.7412 34.8 26.9739 34.8C29.3236 34.8 31.0456 34.3705 31.9951 33.8614V28.4841C31.0778 28.85 26.5715 30.1545 26.5715 25.9864V15.9318H31.9951V9.91818H26.5715L26.5554 3.79318ZM40.895 12.0023L40.4604 9.91818H34.2804V34.2909H41.41V17.8886C43.0998 15.6932 45.9484 16.1227 46.8658 16.4091V9.91818C45.9001 9.58409 42.5687 8.96364 40.895 12.0023ZM55.7495 0.5L48.5717 2.01136V7.77045L55.7495 6.25909V0.5ZM7.22685 17.0932C7.22685 15.9955 8.16028 15.5659 9.657 15.55C11.8297 15.55 14.5978 16.2023 16.7704 17.3636V10.7136C14.4047 9.79091 12.0389 9.425 9.6731 9.425C3.87935 9.425 0.0168457 12.4159 0.0168457 17.4114C0.0168457 25.2386 10.8801 23.9659 10.8801 27.3386C10.8801 28.6432 9.73747 29.0727 8.14419 29.0727C5.77841 29.0727 2.7206 28.1023 0.322627 26.8136V33.1773C2.9781 34.3068 5.66575 34.7841 8.1281 34.7841C14.0667 34.7841 18.1545 32.2705 18.1545 27.1795C18.1545 18.7636 7.22685 20.275 7.22685 17.0932V17.0932ZM103.001 22.3909C103.001 15.1523 99.4601 9.44091 92.6686 9.44091C85.877 9.44091 81.7409 15.1523 81.7409 22.3432C81.7409 30.8545 86.6173 34.7841 93.5698 34.7841C96.9817 34.7841 99.5406 34.0205 101.488 32.9545V27.6409C99.5406 28.6114 97.3036 29.2 94.4711 29.2C91.6869 29.2 89.2406 28.2295 88.9187 24.9205H102.904C102.936 24.5545 103.001 23.075 103.001 22.3909V22.3909ZM88.8544 19.7182C88.8544 16.5364 90.8339 15.2 92.6203 15.2C94.3745 15.2 96.2414 16.5364 96.2414 19.7182H88.8544ZM70.6845 9.44091C67.8842 9.44091 66.0817 10.7455 65.0839 11.6523L64.7137 9.90227H58.4211V42.4841L65.5667 40.9886L65.5828 33.0023C66.6128 33.75 68.1417 34.7841 70.6362 34.7841C75.754 34.7841 80.4212 31.0932 80.4212 22.1205C80.4373 13.9114 75.7058 9.44091 70.6845 9.44091V9.44091ZM68.9786 28.9295C67.3048 28.9295 66.307 28.325 65.615 27.5932L65.5667 17.0932C66.307 16.2818 67.337 15.6932 68.9786 15.6932C71.5858 15.6932 73.3883 18.5886 73.3883 22.2795C73.4044 26.0818 71.634 28.9295 68.9786 28.9295ZM48.5878 34.2909H55.7656V9.91818H48.5878V34.2909Z" fill="#737373"/>
        </g>
        <defs>
            <clipPath id="clip0_1479_623">
                <rect width="103" height="42" fill="white" transform="translate(0 0.5)"/>
            </clipPath>
        </defs>
    </svg>

    <svg id="circle" width="33" height="32" viewBox="0 0 33 32" fill="none" xmlns="http://www.w3.org/2000/svg">
        <rect x="0.5" width="32" height="32" rx="16" fill="#2DC071"/>
        <g clip-path="url(#clip0_1479_661)">
            <path fill-rule="evenodd" clip-rule="evenodd" d="M24.7957 10.2043C24.8604 10.269 24.9118 10.3457 24.9469 10.4302C24.9819 10.5147 25 10.6053 25 10.6968C25 10.7883 24.9819 10.8789 24.9469 10.9634C24.9118 11.0479 24.8604 11.1246 24.7957 11.1893L15.0578 20.9271C14.9932 20.9919 14.9164 21.0433 14.8319 21.0783C14.7474 21.1134 14.6568 21.1314 14.5654 21.1314C14.4739 21.1314 14.3833 21.1134 14.2988 21.0783C14.2143 21.0433 14.1375 20.9919 14.0729 20.9271L9.20398 16.0582C9.07337 15.9276 9 15.7504 9 15.5657C9 15.381 9.07337 15.2039 9.20398 15.0733C9.33459 14.9427 9.51173 14.8693 9.69644 14.8693C9.88115 14.8693 10.0583 14.9427 10.1889 15.0733L14.5654 19.4511L23.8107 10.2043C23.8754 10.1396 23.9521 10.0882 24.0366 10.0531C24.1211 10.018 24.2117 10 24.3032 10C24.3947 10 24.4853 10.018 24.5698 10.0531C24.6543 10.0882 24.731 10.1396 24.7957 10.2043Z" fill="white"/>
        </g>
        <defs>
            <clipPath id="clip0_1479_661">
                <rect width="16" height="11" fill="white" transform="translate(8.5 10)"/>
            </clipPath>
        </defs>
    </svg>


</svg>