<?xml version="1.0" encoding="UTF-8"?>
<svg width="54px" height="42px" viewBox="0 0 54 42" version="1.1" xmlns="http://www.w3.org/2000/svg" xmlns:xlink="http://www.w3.org/1999/xlink">
    <!-- Generator: Sketch 40.1 (33804) - http://www.bohemiancoding.com/sketch -->
    <title>Group</title>
    <desc>Created with Sketch.</desc>
    <defs></defs>
    <g id="Page-1" stroke="none" stroke-width="1" fill="none" fill-rule="evenodd">
        <g id="product_ogpo" transform="translate(-189.000000, -866.000000)" fill="#84A4B2">
            <g id="adv_ogpo" transform="translate(0.000000, 674.000000)">
                <g id="Icon_time" transform="translate(164.000000, 166.000000)">
                    <g id="Group" transform="translate(25.000000, 26.000000)">
                        <path d="M32.7857143,29.8928571 C32.7857143,26.6974954 30.1953618,24.1071429 27,24.1071429 C23.8046382,24.1071429 21.2142857,26.6974954 21.2142857,29.8928571 C21.2142857,33.0882189 23.8046382,35.6785714 27,35.6785714 C30.1953618,35.6785714 32.7857143,33.0882189 32.7857143,29.8928571 L32.7857143,29.8928571 Z M25.0714286,29.8928571 C25.0714286,28.8277366 25.9348794,27.9642857 27,27.9642857 C28.0651206,27.9642857 28.9285714,28.8277366 28.9285714,29.8928571 C28.9285714,30.9579777 28.0651206,31.8214286 27,31.8214286 C25.9348794,31.8214286 25.0714286,30.9579777 25.0714286,29.8928571 L25.0714286,29.8928571 Z" id="Shape"></path>
                        <path d="M38.916632,19.6291903 C39.6388834,18.8463527 39.5897687,17.626237 38.8069312,16.9039856 C38.0240936,16.181734 36.8039778,16.2308487 36.0817264,17.0136864 L28.4754141,25.2580542 C27.7531626,26.0408918 27.8022773,27.2610075 28.5851149,27.983259 C29.3679525,28.7055105 30.5880682,28.6563958 31.3103196,27.8735582 L38.916632,19.6291903 L38.916632,19.6291903 Z" id="Shape"></path>
                        <path d="M52.0714286,41.4642857 C53.1365492,41.4642857 54,40.6008349 54,39.5357143 C54,38.4705937 53.1365492,37.6071429 52.0714286,37.6071429 L1.92857143,37.6071429 C0.863450839,37.6071429 0,38.4705937 0,39.5357143 C0,40.6008349 0.863450839,41.4642857 1.92857143,41.4642857 L52.0714286,41.4642857 L52.0714286,41.4642857 Z" id="Shape"></path>
                        <path d="M25.0714286,6.75 C25.0714286,7.81512059 25.9348794,8.67857143 27,8.67857143 C28.0651206,8.67857143 28.9285714,7.81512059 28.9285714,6.75 L28.9285714,1.92857143 C28.9285714,0.863450839 28.0651206,0 27,0 C25.9348794,0 25.0714286,0.863450839 25.0714286,1.92857143 L25.0714286,6.75 L25.0714286,6.75 Z" id="Shape"></path>
                        <path d="M8.03294451,18.5455139 C8.955366,19.0780742 10.1348618,18.7620292 10.667422,17.8396077 C11.1999824,16.9171863 10.8839375,15.7376904 9.96151592,15.2051302 L5.78603631,12.7944159 C4.86361482,12.2618556 3.68411904,12.5779006 3.15155875,13.500322 C2.61899845,14.4227435 2.93504339,15.6022393 3.85746488,16.1347996 L8.03294451,18.5455139 L8.03294451,18.5455139 Z" id="Shape"></path>
                        <path d="M43.3931792,15.2051302 C42.4707577,15.7376904 42.1547127,16.9171863 42.6872731,17.8396077 C43.2198333,18.7620292 44.3993291,19.0780742 45.3217506,18.5455139 L49.4972302,16.1347996 C50.4196517,15.6022393 50.7356967,14.4227435 50.2031364,13.500322 C49.6705761,12.5779006 48.4910802,12.2618556 47.5686588,12.7944159 L43.3931792,15.2051302 L43.3931792,15.2051302 Z" id="Shape"></path>
                        <path d="M15.2051302,9.96151592 C15.7376904,10.8839375 16.9171863,11.1999824 17.8396077,10.667422 C18.7620292,10.1348618 19.0780742,8.955366 18.5455139,8.03294451 L16.1347996,3.85746488 C15.6022393,2.93504339 14.4227435,2.61899845 13.500322,3.15155875 C12.5779006,3.68411904 12.2618556,4.86361482 12.7944159,5.78603631 L15.2051302,9.96151592 L15.2051302,9.96151592 Z" id="Shape"></path>
                        <path d="M34.9729873,8.03294451 C34.440427,8.955366 34.756472,10.1348618 35.6788935,10.667422 C36.6013149,11.1999824 37.7808108,10.8839375 38.313371,9.96151592 L40.7240853,5.78603631 C41.2566456,4.86361482 40.9406006,3.68411904 40.0181792,3.15155875 C39.0957577,2.61899845 37.9162619,2.93504339 37.3837016,3.85746488 L34.9729873,8.03294451 L34.9729873,8.03294451 Z" id="Shape"></path>
                        <path d="M47.25,25.0714286 C46.1848794,25.0714286 45.3214286,25.9348794 45.3214286,27 C45.3214286,28.0651206 46.1848794,28.9285714 47.25,28.9285714 L52.0714286,28.9285714 C53.1365492,28.9285714 54,28.0651206 54,27 C54,25.9348794 53.1365492,25.0714286 52.0714286,25.0714286 L47.25,25.0714286 L47.25,25.0714286 Z" id="Shape"></path>
                        <path d="M1.92857143,25.0714286 C0.863450839,25.0714286 0,25.9348794 0,27 C0,28.0651206 0.863450839,28.9285714 1.92857143,28.9285714 L6.75,28.9285714 C7.81512059,28.9285714 8.67857143,28.0651206 8.67857143,27 C8.67857143,25.9348794 7.81512059,25.0714286 6.75,25.0714286 L1.92857143,25.0714286 L1.92857143,25.0714286 Z" id="Shape"></path>
                    </g>
                </g>
            </g>
        </g>
    </g>
</svg>