<?xml version="1.0" encoding="UTF-8" standalone="no"?>
<svg width="128px" height="128px" viewBox="0 0 128 128" version="1.1" xmlns="http://www.w3.org/2000/svg" xmlns:xlink="http://www.w3.org/1999/xlink">
    <!-- Generator: Sketch 3.8.1 (29687) - http://www.bohemiancoding.com/sketch -->
    <title>icon_tornado</title>
    <desc>Created with Sketch.</desc>
    <defs></defs>
    <g id="Symbols" stroke="none" stroke-width="1" fill="none" fill-rule="evenodd">
        <g id="what_i_can_insure" transform="translate(-1189.000000, -111.000000)">
            <g id="4" transform="translate(1181.000000, 111.000000)">
                <g id="icon_tornado" transform="translate(8.000000, 0.000000)">
                    <rect id="Rectangle-474" fill="#FFFFFF" x="0" y="0" width="128" height="128"></rect>
                    <path d="M109.208696,46.8403571 L109.208696,46.58 C109.208696,46.4498214 109.208696,46.3196429 109.077958,46.1894643 C109.077958,46.1894643 109.077958,46.1894643 109.077958,46.0592857 C109.077958,45.9291071 108.947221,45.7989286 108.816484,45.7989286 C108.816484,45.7989286 108.816484,45.7989286 108.816484,45.66875 C108.816484,45.66875 108.816484,45.66875 108.685747,45.66875 C108.685747,45.66875 108.555009,45.5385714 108.424272,45.5385714 C108.293535,45.5385714 108.162798,45.4083929 108.162798,45.4083929 L108.162798,45.4083929 L108.03206,45.4083929 L107.901323,45.4083929 L102.671834,45.2782143 L107.1169,39.29 C107.509112,38.7692857 107.509112,37.9882143 106.986163,37.4675 C106.463214,37.0769643 105.67879,37.0769643 105.155841,37.5976786 L99.4034026,45.4083929 C99.4034026,45.5385714 99.2726654,45.5385714 99.2726654,45.66875 L99.2726654,45.66875 C99.2726654,45.7989286 99.1419282,45.9291071 99.1419282,45.9291071 L99.1419282,46.0592857 L99.1419282,46.1894643 L99.1419282,46.1894643 C99.1419282,46.4498214 99.2726654,46.8403571 99.5341399,46.9705357 L99.5341399,46.9705357 L99.5341399,46.9705357 C99.6648771,46.9705357 99.6648771,47.1007143 99.7956144,47.1007143 C99.9263516,47.1007143 99.9263516,47.2308929 100.057089,47.2308929 L100.057089,47.2308929 L100.318563,47.2308929 L100.449301,47.2308929 L105.67879,47.6214286 L99.0111909,56.9942857 C98.6189792,57.515 98.6189792,58.2960714 99.1419282,58.8167857 C99.6648771,59.2073214 100.449301,59.2073214 100.97225,58.6866071 L108.947221,47.49125 C109.077958,47.3610714 109.208696,47.1007143 109.208696,46.8403571 C109.208696,46.9705357 109.208696,46.9705357 109.208696,46.8403571 C109.208696,46.9705357 109.208696,46.9705357 109.208696,46.8403571 L109.208696,46.8403571 Z M34.6884688,61.9410714 C34.6884688,61.8108929 34.6884688,61.8108929 34.5577316,61.6807143 C34.5577316,61.6807143 34.5577316,61.6807143 34.5577316,61.5505357 C34.5577316,61.4203571 34.4269943,61.4203571 34.4269943,61.2901786 L34.4269943,61.2901786 L34.4269943,61.2901786 L34.2962571,61.16 C34.1655198,61.16 34.1655198,61.0298214 34.0347826,61.0298214 L34.0347826,61.0298214 L33.9040454,61.0298214 L33.7733081,61.0298214 L29.9819282,60.7694643 L33.2503592,55.8226786 C33.6425709,55.4321429 33.5118336,54.78125 33.1196219,54.3907143 C32.7274102,54.0001786 32.073724,54.1303571 31.8122495,54.5208929 L27.4979206,60.8996429 C27.4979206,60.8996429 27.3671834,61.0298214 27.3671834,61.16 L27.3671834,61.16 C27.3671834,61.2901786 27.2364461,61.2901786 27.2364461,61.4203571 L27.2364461,61.5505357 L27.2364461,61.6807143 L27.2364461,61.6807143 C27.2364461,61.9410714 27.3671834,62.2014286 27.4979206,62.3316071 L27.4979206,62.3316071 L27.4979206,62.3316071 C27.4979206,62.3316071 27.6286578,62.4617857 27.7593951,62.4617857 C27.8901323,62.4617857 27.8901323,62.4617857 28.0208696,62.5919643 L28.0208696,62.5919643 L28.1516068,62.5919643 L28.282344,62.5919643 L32.2044612,62.8523214 L27.2364461,70.5328571 C26.8442344,70.9233929 26.9749716,71.5742857 27.3671834,71.9648214 C27.7593951,72.3553571 28.4130813,72.2251786 28.6745558,71.8346429 L34.5577316,62.5919643 C34.6884688,62.4617857 34.6884688,62.2014286 34.6884688,62.07125 L34.6884688,62.07125 C34.6884688,62.07125 34.6884688,62.07125 34.6884688,61.9410714 C34.6884688,62.07125 34.6884688,61.9410714 34.6884688,61.9410714 L34.6884688,61.9410714 Z M23.7065406,44.1066071 L19.2614745,51.0060714 C18.8692628,51.5267857 19,52.1776786 19.3922117,52.5682143 C19.7844234,52.95875 20.4381096,52.95875 20.8303214,52.4380357 L25.2753875,45.5385714 C25.6675992,45.1480357 25.536862,44.3669643 25.1446503,43.9764286 C24.7524386,43.5858929 24.0987524,43.7160714 23.7065406,44.1066071 L23.7065406,44.1066071 Z M29.9819282,47.2308929 L34.4269943,40.3314286 C34.819206,39.8107143 34.6884688,39.1598214 34.2962571,38.7692857 C33.9040454,38.37875 33.2503592,38.37875 32.8581474,38.8994643 L28.4130813,45.7989286 C28.0208696,46.3196429 28.1516068,46.9705357 28.5438185,47.3610714 C28.9360302,47.7516071 29.5897164,47.7516071 29.9819282,47.2308929 L29.9819282,47.2308929 Z M76.1321739,32.5207143 C81.2309263,32.6508929 75.8706994,32.5207143 76.1321739,32.5207143 C72.7330057,32.6508929 69.2031002,33.1716071 65.8039319,34.0828571 C63.0584499,34.8639286 59.1363327,36.0355357 57.0445369,38.1183929 C55.7371645,39.4201786 52.0765217,42.5444643 55.6064272,43.7160714 C57.3060113,44.2367857 59.1363327,44.2367857 60.8359168,44.1066071 C62.4047637,43.9764286 63.8428733,43.9764286 65.280983,43.1953571 C65.8039319,42.935 68.026465,42.02375 67.1113043,41.1125 C66.3268809,40.20125 63.1891871,41.8935714 62.012552,41.8935714 C61.3588658,41.8935714 58.221172,41.6332143 59.0055955,40.4616071 C59.7900189,39.29 61.3588658,38.8994643 62.6662382,38.37875 C66.3268809,37.0769643 70.1182609,36.4260714 74.0403781,36.1657143 C76.1321739,36.0355357 78.354707,36.0355357 80.4465028,35.9053571 C81.8846125,35.9053571 84.891569,35.2544643 84.4993573,37.5976786 C84.4993573,38.5089286 83.8456711,38.7692857 83.0612476,39.1598214 C82.146087,39.6805357 81.2309263,40.3314286 80.1850284,40.7219643 C78.2239698,41.6332143 76.0014367,42.4142857 73.9096408,43.0651786 C69.2031002,44.6273214 64.2350851,46.0592857 59.2670699,46.7101786 C55.0834783,47.2308929 50.8998866,47.3610714 46.8470321,46.7101786 C45.5396597,46.4498214 43.1863894,45.9291071 42.5327032,44.6273214 C41.7482798,43.0651786 44.8859735,41.1125 45.9318715,40.3314286 C49.4617769,37.9882143 53.3838941,36.6864286 57.0445369,34.8639286 C57.5674858,34.6035714 57.9596975,34.2130357 57.8289603,33.5621429 C56.7830624,33.0414286 55.7371645,33.3017857 54.6912665,33.3017857 C52.207259,33.8225 49.9847259,34.8639286 47.6314556,35.9053571 C44.2322873,37.4675 39.3950095,39.5503571 38.7413233,43.7160714 C38.0876371,47.7516071 43.3171267,49.4439286 46.1933459,50.225 C45.5396597,52.1776786 45.147448,54.0001786 46.8470321,55.4321429 C49.0695652,57.3848214 51.8150473,57.7753571 54.6912665,58.0357143 C57.1752741,58.1658929 59.5285444,57.7753571 61.8818147,57.7753571 C63.7121361,57.7753571 65.4117202,56.9942857 67.2420416,56.60375 C69.7260491,56.0830357 71.9485822,55.0416071 74.3018526,54.2605357 C76.9165974,53.3492857 79.9235539,52.0475 82.146087,50.225 C82.6690359,49.8344643 83.4534594,49.0533929 83.1919849,48.2723214 C83.0612476,47.49125 82.2768242,47.3610714 81.623138,47.49125 C79.6620794,48.0119643 77.831758,48.9232143 75.8706994,49.7042857 C73.6481664,50.6155357 71.294896,51.5267857 69.0723629,52.3078571 C67.1113043,52.95875 64.8887713,53.2191071 62.9277127,53.87 C60.7051796,54.78125 57.5674858,54.6510714 55.2142155,54.6510714 C53.3838941,54.6510714 50.8998866,54.5208929 49.2003025,53.6096429 C48.5466163,53.2191071 48.1544045,52.5682143 48.0236673,51.7871429 C47.8929301,50.4853571 48.2851418,50.4853571 49.3310397,50.6155357 C52.3379962,50.8758929 55.8679017,50.8758929 58.8748582,50.3551786 C64.758034,49.5741071 70.2489981,48.0119643 75.8706994,46.3196429 C78.6161815,45.5385714 81.7538752,44.2367857 83.9764083,42.5444643 C85.5452552,41.3728571 88.2907372,39.4201786 88.2907372,37.2071429 C88.2907372,32 79.5313422,32.6508929 76.1321739,32.5207143 L76.1321739,32.5207143 Z M55.7371645,87.1957143 C55.7371645,87.0655357 55.7371645,87.0655357 55.7371645,87.1957143 C54.952741,86.8051786 54.6912665,85.5033929 55.0834783,84.8525 C55.3449527,84.3317857 56.5215879,82.8998214 55.7371645,82.3791071 C54.4297921,81.4678571 53.2531569,83.6808929 52.9916824,84.5921429 C52.4687335,85.8939286 52.4687335,87.4560714 52.8609452,88.7578571 C51.8150473,87.8466071 50.7691493,89.5389286 50.5076749,90.32 C49.3310397,93.05375 52.7302079,95.2667857 55.2142155,94.3555357 C55.7371645,94.0951786 56.2601134,93.5744643 56.3908507,93.05375 C56.6523251,92.2726786 56.1293762,91.7519643 55.47569,91.8821429 C55.0834783,92.0123214 54.0375803,92.2726786 53.6453686,92.0123214 C53.1224197,91.6217857 53.1224197,90.5803571 53.2531569,90.0596429 C53.5146314,89.40875 55.0834783,90.7105357 55.8679017,90.7105357 C57.0445369,90.7105357 58.3519093,90.8407143 59.5285444,90.1898214 C60.1822306,89.9294643 60.7051796,89.1483929 60.5744423,88.3673214 C60.0514934,86.0241071 57.1752741,87.8466071 55.7371645,87.1957143 L55.7371645,87.1957143 Z M80.4465028,56.0830357 C79.6620794,55.9528571 78.0932325,56.8641071 77.4395463,57.2546429 C76.7858601,57.515 76.1321739,57.7753571 75.3477505,58.0357143 C74.6940643,58.2960714 74.3018526,58.6866071 73.7789036,58.9469643 C73.6481664,59.0771429 73.5174291,59.0771429 73.3866919,59.2073214 C69.7260491,61.0298214 65.6731947,62.07125 61.489603,62.07125 C59.5285444,62.07125 57.4367486,61.9410714 55.8679017,60.7694643 C55.0834783,60.1185714 53.7761059,58.8167857 52.7302079,58.8167857 C50.7691493,58.8167857 51.9457845,61.4203571 52.7302079,62.2014286 C53.9068431,63.5032143 55.0834783,63.89375 56.6523251,64.6748214 C57.8289603,65.1955357 57.4367486,65.1955357 57.4367486,66.3671429 C57.4367486,67.2783929 57.8289603,68.0594643 58.3519093,68.8405357 C59.2670699,70.0121429 60.3129679,70.4026786 61.6203403,70.9233929 C65.5424575,72.2251786 70.1182609,71.5742857 73.9096408,70.2725 C74.6940643,70.0121429 75.3477505,69.6216071 76.1321739,69.2310714 C76.5243856,69.1008929 76.9165974,68.8405357 77.3088091,68.5801786 C77.3088091,68.5801786 77.9624953,67.7991071 78.0932325,67.7991071 C78.7469187,67.53875 80.9694518,64.9351786 79.2698677,64.805 C77.831758,64.6748214 76.3936484,65.5860714 75.086276,66.1067857 C73.3866919,66.7576786 71.6871078,67.4085714 69.8567864,67.9292857 C67.3727788,68.5801786 60.1822306,69.1008929 59.6592817,65.3257143 C61.8818147,65.1955357 63.9736106,65.71625 66.1961437,65.3257143 C68.549414,64.805 70.9026843,64.0239286 72.9944802,62.9825 C74.9555388,62.07125 76.9165974,60.8996429 78.877656,59.7280357 C79.6620794,59.2073214 80.7079773,58.6866071 81.100189,57.7753571 C81.3616635,57.1244643 81.3616635,56.2132143 80.4465028,56.0830357 L80.4465028,56.0830357 Z M65.4117202,75.0891071 C63.7121361,75.0891071 62.2740265,74.9589286 60.9666541,73.7873214 C60.4437051,73.3967857 60.3129679,72.4855357 60.1822306,71.8346429 C60.0514934,71.4441071 59.5285444,70.1423214 59.5285444,69.8819643 C59.5285444,70.0121429 59.3978072,69.8819643 59.5285444,69.8819643 C56.7830624,69.1008929 57.4367486,74.3080357 58.0904348,75.74 C54.1683176,75.0891071 55.8679017,81.7282143 57.4367486,83.1601786 C60.3129679,85.76375 64.3658223,85.5033929 67.7649905,84.0714286 C68.4186767,83.8110714 69.4645747,82.7696429 69.3338374,81.9885714 C68.9416257,80.0358929 65.1502457,81.3376786 63.9736106,81.5980357 C62.2740265,81.8583929 60.5744423,81.9885714 59.3978072,80.5566071 C58.3519093,79.385 58.221172,77.8228571 58.3519093,76.2607143 C58.3519093,76.1305357 59.3978072,76.9116071 59.5285444,76.9116071 C60.1822306,77.3021429 60.8359168,77.6926786 61.3588658,78.0832143 C61.7510775,78.2133929 62.012552,78.47375 62.4047637,78.6039286 C63.4506616,78.7341071 64.6272968,78.7341071 65.6731947,78.7341071 C67.8957278,78.6039286 72.8637429,78.0832143 73.9096408,75.6098214 C75.086276,73.00625 66.7190926,75.0891071 65.4117202,75.0891071 L65.4117202,75.0891071 Z" id="Shape" fill="#84A4B2"></path>
                </g>
            </g>
        </g>
    </g>
</svg>