<?xml version="1.0" encoding="UTF-8"?>
<svg width="50px" height="50px" viewBox="0 0 50 50" version="1.1" xmlns="http://www.w3.org/2000/svg" xmlns:xlink="http://www.w3.org/1999/xlink">
    <!-- Generator: Sketch 40.1 (33804) - http://www.bohemiancoding.com/sketch -->
    <title>Group</title>
    <desc>Created with Sketch.</desc>
    <defs></defs>
    <g id="Page-1" stroke="none" stroke-width="1" fill="none" fill-rule="evenodd">
        <g id="product_ogpo" transform="translate(-594.000000, -861.000000)" fill="#84A4B2">
            <g id="adv_ogpo" transform="translate(0.000000, 670.000000)">
                <g id="5" transform="translate(330.000000, 170.000000)">
                    <g id="Group" transform="translate(264.000000, 21.000000)">
                        <path d="M48.4375,29.6875 C47.5734375,29.6875 46.875,28.9890625 46.875,28.125 C46.875,16.0625 37.0625,6.25 25,6.25 C12.9375,6.25 3.125,16.0625 3.125,28.125 C3.125,28.9890625 2.425,29.6875 1.5625,29.6875 C0.7,29.6875 0,28.9890625 0,28.125 C0,14.340625 11.215625,3.125 25,3.125 C38.784375,3.125 50,14.340625 50,28.125 C50,28.9890625 49.3015625,29.6875 48.4375,29.6875 L48.4375,29.6875 Z" id="Shape"></path>
                        <path d="M25,6.25 C24.1375,6.25 23.4375,5.55 23.4375,4.6875 L23.4375,1.5625 C23.4375,0.7 24.1375,0 25,0 C25.8625,0 26.5625,0.7 26.5625,1.5625 L26.5625,4.6875 C26.5625,5.55 25.8625,6.25 25,6.25 L25,6.25 Z" id="Shape"></path>
                        <g transform="translate(0.000000, 21.875000)" id="Shape">
                            <path d="M13.28125,8.984375 C12.41875,8.984375 11.71875,8.2859375 11.71875,7.421875 C11.71875,5.0515625 9.7921875,3.125 7.421875,3.125 C5.0515625,3.125 3.125,5.0515625 3.125,7.421875 C3.125,8.2859375 2.425,8.984375 1.5625,8.984375 C0.7,8.984375 0,8.2859375 0,7.421875 C0,3.3296875 3.3296875,0 7.421875,0 C11.5140625,0 14.84375,3.3296875 14.84375,7.421875 C14.84375,8.2859375 14.14375,8.984375 13.28125,8.984375 L13.28125,8.984375 Z"></path>
                            <path d="M25,8.984375 C24.1375,8.984375 23.4375,8.2859375 23.4375,7.421875 C23.4375,5.0515625 21.5109375,3.125 19.140625,3.125 C16.7703125,3.125 14.84375,5.0515625 14.84375,7.421875 C14.84375,8.2859375 14.14375,8.984375 13.28125,8.984375 C12.41875,8.984375 11.71875,8.2859375 11.71875,7.421875 C11.71875,3.3296875 15.0484375,0 19.140625,0 C23.2328125,0 26.5625,3.3296875 26.5625,7.421875 C26.5625,8.2859375 25.8625,8.984375 25,8.984375 L25,8.984375 Z"></path>
                            <path d="M36.71875,8.984375 C35.8546875,8.984375 35.15625,8.2859375 35.15625,7.421875 C35.15625,5.0515625 33.2296875,3.125 30.859375,3.125 C28.4890625,3.125 26.5625,5.0515625 26.5625,7.421875 C26.5625,8.2859375 25.8625,8.984375 25,8.984375 C24.1375,8.984375 23.4375,8.2859375 23.4375,7.421875 C23.4375,3.3296875 26.7671875,0 30.859375,0 C34.9515625,0 38.28125,3.3296875 38.28125,7.421875 C38.28125,8.2859375 37.5828125,8.984375 36.71875,8.984375 L36.71875,8.984375 Z"></path>
                            <path d="M48.4375,8.984375 C47.5734375,8.984375 46.875,8.2859375 46.875,7.421875 C46.875,5.0515625 44.9484375,3.125 42.578125,3.125 C40.2078125,3.125 38.28125,5.0515625 38.28125,7.421875 C38.28125,8.2859375 37.5828125,8.984375 36.71875,8.984375 C35.8546875,8.984375 35.15625,8.2859375 35.15625,7.421875 C35.15625,3.3296875 38.4859375,0 42.578125,0 C46.6703125,0 50,3.3296875 50,7.421875 C50,8.2859375 49.3015625,8.984375 48.4375,8.984375 L48.4375,8.984375 Z"></path>
                        </g>
                        <path d="M20.3125,50 C16.865625,50 14.0625,47.196875 14.0625,43.75 C14.0625,42.8859375 14.7625,42.1875 15.625,42.1875 C16.4875,42.1875 17.1875,42.8859375 17.1875,43.75 C17.1875,45.4734375 18.5890625,46.875 20.3125,46.875 C22.0359375,46.875 23.4375,45.4734375 23.4375,43.75 L23.4375,28.125 C23.4375,27.2609375 24.1375,26.5625 25,26.5625 C25.8625,26.5625 26.5625,27.2609375 26.5625,28.125 L26.5625,43.653125 C26.5625,47.196875 23.759375,50 20.3125,50 L20.3125,50 Z" id="Shape"></path>
                    </g>
                </g>
            </g>
        </g>
    </g>
</svg>