<svg width="48" height="40" viewBox="0 0 48 40" fill="none" xmlns="http://www.w3.org/2000/svg">
<g clip-path="url(#clip0_1479_943)">
<path fill-rule="evenodd" clip-rule="evenodd" d="M45.9167 38.6666C45.9167 38.6666 49 38.6666 49 35.5555C49 32.4444 45.9167 23.1111 33.5834 23.1111C21.25 23.1111 18.1667 32.4444 18.1667 35.5555C18.1667 38.6666 21.25 38.6666 21.25 38.6666H45.9167ZM21.3179 35.5555H45.8489C45.8633 35.5538 45.8777 35.5518 45.892 35.5493L45.9167 35.5431C45.9105 34.7218 45.4018 32.3386 43.5734 30.192C41.8714 28.1791 38.8805 26.2222 33.5834 26.2222C28.2893 26.2222 25.2984 28.1822 23.5934 30.192C21.7649 32.3386 21.2531 34.7249 21.25 35.5431C21.2726 35.5475 21.2952 35.5516 21.3179 35.5555ZM33.5834 16.8889C35.2189 16.8889 36.7874 16.2333 37.9438 15.0664C39.1003 13.8995 39.75 12.3169 39.75 10.6666C39.75 9.01641 39.1003 7.43376 37.9438 6.26687C36.7874 5.09998 35.2189 4.44442 33.5834 4.44442C31.9478 4.44442 30.3793 5.09998 29.2229 6.26687C28.0664 7.43376 27.4167 9.01641 27.4167 10.6666C27.4167 12.3169 28.0664 13.8995 29.2229 15.0664C30.3793 16.2333 31.9478 16.8889 33.5834 16.8889ZM42.8334 10.6666C42.8334 11.8923 42.5941 13.106 42.1292 14.2384C41.6644 15.3707 40.983 16.3996 40.1241 17.2663C39.2651 18.133 38.2454 18.8205 37.1232 19.2895C36.0009 19.7586 34.7981 20 33.5834 20C32.3686 20 31.1658 19.7586 30.0435 19.2895C28.9213 18.8205 27.9016 18.133 27.0426 17.2663C26.1837 16.3996 25.5023 15.3707 25.0375 14.2384C24.5726 13.106 24.3334 11.8923 24.3334 10.6666C24.3334 8.19129 25.3079 5.81732 27.0426 4.06698C28.7773 2.31664 31.1301 1.33331 33.5834 1.33331C36.0366 1.33331 38.3894 2.31664 40.1241 4.06698C41.8588 5.81732 42.8334 8.19129 42.8334 10.6666ZM21.0527 23.9822C19.8193 23.5903 18.5479 23.3327 17.2602 23.2138C16.5366 23.1443 15.8102 23.1101 15.0834 23.1111C2.75002 23.1111 -0.333313 32.4444 -0.333313 35.5555C-0.333313 37.6306 0.693437 38.6666 2.75002 38.6666H15.7494C15.2923 37.6954 15.0643 36.6305 15.0834 35.5555C15.0834 32.4133 16.2458 29.2026 18.4442 26.5209C19.1934 25.6062 20.066 24.7506 21.0527 23.9822ZM14.8367 26.2222C9.69369 26.2844 6.77377 28.2133 5.09335 30.192C3.2526 32.3511 2.75002 34.7435 2.75002 35.5555H12C12 32.3044 12.9959 29.0658 14.8367 26.2222ZM4.29169 12.2222C4.29169 9.74685 5.26624 7.37288 7.00095 5.62254C8.73566 3.8722 11.0884 2.88887 13.5417 2.88887C15.9949 2.88887 18.3477 3.8722 20.0824 5.62254C21.8171 7.37288 22.7917 9.74685 22.7917 12.2222C22.7917 14.6976 21.8171 17.0715 20.0824 18.8219C18.3477 20.5722 15.9949 21.5555 13.5417 21.5555C11.0884 21.5555 8.73566 20.5722 7.00095 18.8219C5.26624 17.0715 4.29169 14.6976 4.29169 12.2222ZM13.5417 5.99998C11.9062 5.99998 10.3377 6.65553 9.18119 7.82243C8.02472 8.98932 7.37502 10.572 7.37502 12.2222C7.37502 13.8724 8.02472 15.4551 9.18119 16.622C10.3377 17.7889 11.9062 18.4444 13.5417 18.4444C15.1772 18.4444 16.7457 17.7889 17.9022 16.622C19.0587 15.4551 19.7084 13.8724 19.7084 12.2222C19.7084 10.572 19.0587 8.98932 17.9022 7.82243C16.7457 6.65553 15.1772 5.99998 13.5417 5.99998Z" fill="#23A6F0"/>
</g>
<defs>
<clipPath id="clip0_1479_943">
<rect width="48" height="39.5295" fill="white"/>
</clipPath>
</defs>
</svg>
